<?xml version="1.0" encoding="UTF-8" standalone="no"?>
<!-- Created with Inkscape (http://www.inkscape.org/) -->

<svg
   width="79.475937mm"
   height="79.475937mm"
   viewBox="0 0 79.475937 79.475937"
   version="1.1"
   id="svg1"
   inkscape:version="1.3.2 (091e20e, 2023-11-25, custom)"
   sodipodi:docname="cat drawing.svg"
   xmlns:inkscape="http://www.inkscape.org/namespaces/inkscape"
   xmlns:sodipodi="http://sodipodi.sourceforge.net/DTD/sodipodi-0.dtd"
   xmlns="http://www.w3.org/2000/svg"
   xmlns:svg="http://www.w3.org/2000/svg">
  <sodipodi:namedview
     id="namedview1"
     pagecolor="#ffffff"
     bordercolor="#000000"
     borderopacity="0.25"
     inkscape:showpageshadow="2"
     inkscape:pageopacity="0.0"
     inkscape:pagecheckerboard="0"
     inkscape:deskcolor="#d1d1d1"
     inkscape:document-units="mm"
     inkscape:zoom="2"
     inkscape:cx="196.25"
     inkscape:cy="159.25"
     inkscape:window-width="1920"
     inkscape:window-height="991"
     inkscape:window-x="-9"
     inkscape:window-y="-9"
     inkscape:window-maximized="1"
     inkscape:current-layer="layer1" />
  <defs
     id="defs1">
    <inkscape:path-effect
       effect="spiro"
       id="path-effect118"
       is_visible="true"
       lpeversion="1" />
    <inkscape:path-effect
       effect="simplify"
       id="path-effect117"
       is_visible="true"
       lpeversion="1.3"
       threshold="32.4675"
       steps="1"
       smooth_angles="360"
       helper_size="0"
       simplify_individual_paths="false"
       simplify_just_coalesce="false" />
    <inkscape:path-effect
       effect="spiro"
       id="path-effect111"
       is_visible="true"
       lpeversion="1" />
    <inkscape:path-effect
       effect="simplify"
       id="path-effect110"
       is_visible="true"
       lpeversion="1.3"
       threshold="32.4675"
       steps="1"
       smooth_angles="360"
       helper_size="0"
       simplify_individual_paths="false"
       simplify_just_coalesce="false" />
    <inkscape:path-effect
       effect="spiro"
       id="path-effect107"
       is_visible="true"
       lpeversion="1" />
    <inkscape:path-effect
       effect="simplify"
       id="path-effect106"
       is_visible="true"
       lpeversion="1.3"
       threshold="32.4675"
       steps="1"
       smooth_angles="360"
       helper_size="0"
       simplify_individual_paths="false"
       simplify_just_coalesce="false" />
    <inkscape:path-effect
       effect="spiro"
       id="path-effect92"
       is_visible="true"
       lpeversion="1" />
    <inkscape:path-effect
       effect="simplify"
       id="path-effect91"
       is_visible="true"
       lpeversion="1.3"
       threshold="32.4675"
       steps="1"
       smooth_angles="360"
       helper_size="0"
       simplify_individual_paths="false"
       simplify_just_coalesce="false" />
    <inkscape:path-effect
       effect="spiro"
       id="path-effect90"
       is_visible="true"
       lpeversion="1" />
    <inkscape:path-effect
       effect="simplify"
       id="path-effect89"
       is_visible="true"
       lpeversion="1.3"
       threshold="32.4675"
       steps="1"
       smooth_angles="360"
       helper_size="0"
       simplify_individual_paths="false"
       simplify_just_coalesce="false" />
    <inkscape:path-effect
       effect="spiro"
       id="path-effect88"
       is_visible="true"
       lpeversion="1" />
    <inkscape:path-effect
       effect="simplify"
       id="path-effect86"
       is_visible="true"
       lpeversion="1.3"
       threshold="32.4675"
       steps="1"
       smooth_angles="360"
       helper_size="0"
       simplify_individual_paths="false"
       simplify_just_coalesce="false" />
    <inkscape:path-effect
       effect="spiro"
       id="path-effect84"
       is_visible="true"
       lpeversion="1" />
    <inkscape:path-effect
       effect="simplify"
       id="path-effect83"
       is_visible="true"
       lpeversion="1.3"
       threshold="32.4675"
       steps="1"
       smooth_angles="360"
       helper_size="0"
       simplify_individual_paths="false"
       simplify_just_coalesce="false" />
    <inkscape:path-effect
       effect="spiro"
       id="path-effect67"
       is_visible="true"
       lpeversion="1" />
    <inkscape:path-effect
       effect="simplify"
       id="path-effect66"
       is_visible="true"
       lpeversion="1.3"
       threshold="32.4675"
       steps="1"
       smooth_angles="360"
       helper_size="0"
       simplify_individual_paths="false"
       simplify_just_coalesce="false" />
    <inkscape:path-effect
       effect="simplify"
       id="path-effect53"
       is_visible="true"
       lpeversion="1.3"
       threshold="32.4675"
       steps="1"
       smooth_angles="360"
       helper_size="0"
       simplify_individual_paths="false"
       simplify_just_coalesce="false" />
    <inkscape:path-effect
       effect="simplify"
       id="path-effect44"
       is_visible="true"
       lpeversion="1.3"
       threshold="32.4675"
       steps="1"
       smooth_angles="360"
       helper_size="0"
       simplify_individual_paths="false"
       simplify_just_coalesce="false" />
    <linearGradient
       id="swatch43"
       inkscape:swatch="solid">
      <stop
         style="stop-color:#000000;stop-opacity:1;"
         offset="0"
         id="stop43" />
    </linearGradient>
  </defs>
  <g
     inkscape:label="Layer 1"
     inkscape:groupmode="layer"
     id="layer1"
     transform="translate(-11.673229,-7.0863521)">
    <path
       style="fill:none;fill-opacity:0.997741;stroke:none;stroke-width:0.465;stroke-dasharray:none;stroke-opacity:1;paint-order:normal"
       d="m 65.606376,35.910779 c 0.0263,-3.837302 0.608341,-8.242724 3.763533,-10.809397 3.120304,-2.538293 7.608485,-1.903596 10.991534,-0.271685 4.407332,2.126005 8.321151,5.859034 9.679913,10.677204 0.867981,3.077858 -0.493044,6.26631 -2.697913,8.513147 -3.384766,3.449192 -8.297884,4.745283 -13.022566,4.931618 -6.436893,0.253862 -12.873594,-1.236759 -19.301512,-0.07114 -1.862555,0.337751 -3.416233,1.495034 -4.530883,3.013557 -3.578473,4.875067 -4.51603,11.076387 -5.100004,16.944544 -0.825109,8.291246 0.18172,16.753125 -1.494756,24.935176 -0.479411,2.339765 -1.149289,5.449335 -3.692261,6.141742 -3.381862,0.920822 -6.94394,-0.27366 -9.951882,-1.782103 -5.460025,-2.73813 -10.596388,-6.735227 -13.477894,-12.189203 -1.310925,-2.481255 -2.512063,-5.669885 -1.195755,-8.283468 0.369112,-0.732887 0.937251,-1.339416 1.346387,-2.047671"
       id="path43"
       inkscape:path-effect="#path-effect44"
       inkscape:original-d="m 65.606376,35.910779 c 0.03751,-26.319932 33.593013,-4.82967 22.427837,7.393329 -7.275867,7.965207 -17.551301,5.2818 -26.561742,5.032935 -2.631263,-0.07267 -7.70531,0.107347 -9.720601,2.111378 -8.245147,8.199086 -6.294268,27.977965 -7.28889,38.590521 -0.276873,2.954208 -0.620234,10.018157 -4.626483,10.984778 -8.437954,2.03589 -26.668468,-11.250676 -24.529084,-21.611815 0.217806,-1.054843 1.076603,-1.865868 1.614904,-2.798802" />
    <circle
       style="fill:none;fill-opacity:0.997741;stroke:#000000;stroke-width:2.64583;stroke-dasharray:none;stroke-opacity:1;paint-order:normal"
       id="path52"
       cx="51.411198"
       cy="46.824322"
       r="38.415054" />
    <path
       style="fill:none;fill-opacity:0.997741;stroke:#000000;stroke-width:2.64583;stroke-dasharray:none;stroke-opacity:1;paint-order:normal"
       d="m 79.792469,45.964284 c -18.984536,0 -37.96913,0 -56.953666,0"
       id="path53"
       inkscape:path-effect="#path-effect53"
       inkscape:original-d="M 79.792469,45.964284 H 22.838803" />
    <path
       id="path62"
       style="fill:none;fill-opacity:0.997741;stroke:#000000;stroke-width:2.64583;stroke-dasharray:none;stroke-opacity:1;paint-order:normal"
       d="m 66.895051,33.109558 a 11.487072,10.676221 0 0 0 -11.48663,10.676351 11.487072,10.676221 0 0 0 0.1726,1.756999 h 22.62859 a 11.487072,10.676221 0 0 0 0.1726,-1.756999 11.487072,10.676221 0 0 0 -11.48716,-10.676351 z" />
    <path
       id="path63"
       style="fill:none;fill-opacity:0.997741;stroke:#000000;stroke-width:2.64583;stroke-dasharray:none;stroke-opacity:1;paint-order:normal"
       d="m 35.677242,33.379842 a 11.487072,10.676221 0 0 0 -11.48663,10.676351 11.487072,10.676221 0 0 0 0.1726,1.756999 h 22.62859 a 11.487072,10.676221 0 0 0 0.1726,-1.756999 11.487072,10.676221 0 0 0 -11.48716,-10.676351 z" />
    <g
       id="g70"
       transform="translate(0,3.9191189)">
      <path
         sodipodi:type="star"
         style="fill:none;fill-opacity:0.997741;stroke:#000000;stroke-width:2.64583;stroke-dasharray:none;stroke-opacity:1;paint-order:normal"
         id="path64"
         inkscape:flatsided="false"
         sodipodi:sides="3"
         sodipodi:cx="46.75914"
         sodipodi:cy="23.784996"
         sodipodi:r1="4.6265178"
         sodipodi:r2="2.3132589"
         sodipodi:arg1="1.5707963"
         sodipodi:arg2="2.6179939"
         inkscape:rounded="0"
         inkscape:randomized="0"
         d="m 46.75914,28.411514 -2.003341,-3.469889 -2.003341,-3.469888 4.006682,0 4.006682,0 -2.003341,3.469889 z"
         inkscape:transform-center-y="1.1566292"
         transform="translate(4.0542609,0.27028406)" />
      <path
         style="fill:none;fill-opacity:0.997741;stroke:#000000;stroke-width:2.64583;stroke-dasharray:none;stroke-opacity:1;paint-order:normal"
         d="M 50.678259,21.757866 V 14.865623"
         id="path66"
         inkscape:path-effect="#path-effect66;#path-effect67"
         inkscape:original-d="M 50.678259,21.757866 V 14.865623" />
      <path
         style="fill:none;fill-opacity:0.997741;stroke:#000000;stroke-width:2.64583;stroke-dasharray:none;stroke-opacity:1;paint-order:normal"
         d="m 50.933397,15.958494 c 3.535714,-0.860039 4.109074,-3.631274 4.109074,-3.631274 v 0"
         id="path69" />
      <path
         style="fill:none;fill-opacity:0.997741;stroke:#000000;stroke-width:2.73756;stroke-dasharray:none;stroke-opacity:1;paint-order:normal"
         d="M 50.895596,15.938623 C 47.052033,15.09166 46.428751,12.362559 46.428751,12.362559 v 0"
         id="path70" />
    </g>
    <g
       id="g73">
      <path
         style="fill:none;fill-opacity:0.997741;stroke:#000000;stroke-width:1.546;stroke-dasharray:none;stroke-opacity:1;paint-order:normal"
         d="m 59.438222,20.163127 c 8.313706,-0.382239 8.791507,-4.109073 8.791507,-4.109073 l -0.19112,0.286679"
         id="path71" />
      <path
         style="fill:none;fill-opacity:0.997741;stroke:#000000;stroke-width:1.546;stroke-dasharray:none;stroke-opacity:1;paint-order:normal"
         d="m 59.916023,23.316602 9.842664,-1.051159 0.477798,-0.09556"
         id="path72" />
      <path
         style="fill:none;fill-opacity:0.997741;stroke:#000000;stroke-width:1.62405;stroke-dasharray:none;stroke-opacity:1;paint-order:normal"
         d="m 59.98341,25.688315 c 9.280596,0.377863 9.813966,4.06203 9.813966,4.06203 l -0.213347,-0.283397"
         id="path73" />
    </g>
    <g
       id="g76"
       transform="matrix(-1,0,0,1,102.19582,0)">
      <path
         style="fill:none;fill-opacity:0.997741;stroke:#000000;stroke-width:1.546;stroke-dasharray:none;stroke-opacity:1;paint-order:normal"
         d="m 59.438222,20.163127 c 8.313706,-0.382239 8.791507,-4.109073 8.791507,-4.109073 l -0.19112,0.286679"
         id="path74" />
      <path
         style="fill:none;fill-opacity:0.997741;stroke:#000000;stroke-width:1.546;stroke-dasharray:none;stroke-opacity:1;paint-order:normal"
         d="m 59.916023,23.316602 9.842664,-1.051159 0.477798,-0.09556"
         id="path75" />
      <path
         style="fill:none;fill-opacity:0.997741;stroke:#000000;stroke-width:1.62405;stroke-dasharray:none;stroke-opacity:1;paint-order:normal"
         d="m 59.98341,25.688315 c 9.280596,0.377863 9.813966,4.06203 9.813966,4.06203 l -0.213347,-0.283397"
         id="path76" />
    </g>
    <path
       style="fill:none;fill-opacity:0.997741;stroke:#000000;stroke-width:1.546;stroke-dasharray:none;stroke-opacity:1;paint-order:normal"
       d="m 56.2763,62.234891 c 0.84386,2.657576 2.409402,5.08215 4.48428,6.944862 1.661541,1.491639 3.678985,2.635767 5.875578,3.036622 1.076493,0.196449 2.233163,0.202652 3.213688,-0.283145 0.687822,-0.340778 1.251844,-0.911666 1.623974,-1.583043 0.403703,-0.728338 0.584901,-1.56396 0.62938,-2.39551 0.04448,-0.831549 -0.0426,-1.664247 -0.147196,-2.49039 -0.15247,-1.204286 -0.34274,-2.4053 -0.62789,-3.585233 -0.178487,-0.738565 -0.394011,-1.468178 -0.645491,-2.185181"
       id="path82"
       inkscape:path-effect="#path-effect83;#path-effect84"
       inkscape:original-d="m 56.2763,62.234891 c 1.802646,4.858433 6.366867,10.574147 12.146076,10.001864 1.218041,-0.120616 2.40183,-0.476843 2.953901,-1.663324 1.089078,-2.340576 0.607124,-6.010013 0.02339,-8.447265 -0.174503,-0.72858 -0.788299,-1.698805 -0.717044,-2.432293" />
    <path
       style="fill:none;fill-opacity:0.997741;stroke:#000000;stroke-width:1.546;stroke-dasharray:none;stroke-opacity:1;paint-order:normal"
       d="m 56.2763,62.234891 c 0.84386,2.657576 2.409402,5.08215 4.48428,6.944862 1.661541,1.491639 3.678985,2.635767 5.875578,3.036622 1.076493,0.196449 2.233163,0.202652 3.213688,-0.283145 0.687822,-0.340778 1.251844,-0.911666 1.623974,-1.583043 0.403703,-0.728338 0.584901,-1.56396 0.62938,-2.39551 0.04448,-0.831549 -0.0426,-1.664247 -0.147196,-2.49039 -0.15247,-1.204286 -0.34274,-2.4053 -0.62789,-3.585233 -0.178487,-0.738565 -0.394011,-1.468178 -0.645491,-2.185181"
       id="path84"
       inkscape:path-effect="#path-effect86;#path-effect88"
       inkscape:original-d="m 56.2763,62.234891 c 1.802646,4.858433 6.366867,10.574147 12.146076,10.001864 1.218041,-0.120616 2.40183,-0.476843 2.953901,-1.663324 1.089078,-2.340576 0.607124,-6.010013 0.02339,-8.447265 -0.174503,-0.72858 -0.788299,-1.698805 -0.717044,-2.432293"
       transform="matrix(-1,0,0,1,99.845271,0.06757101)" />
    <path
       style="fill:none;fill-opacity:0.997741;stroke:#000000;stroke-width:1.546;stroke-dasharray:none;stroke-opacity:1;paint-order:normal"
       d="m 32.754194,61.371225 c -0.248398,0.72673 -0.460624,1.465823 -0.63563,2.213628 -0.1935,0.826831 -0.340134,1.700757 -0.10456,2.516599 0.07219,0.25002 0.180347,0.491225 0.334253,0.701071 0.153905,0.209847 0.354756,0.387702 0.589995,0.498988 0.266838,0.126236 0.570653,0.163413 0.864424,0.134501 0.293771,-0.02891 0.578494,-0.121655 0.846967,-0.244371 0.619925,-0.283361 1.157951,-0.725806 1.612604,-1.233636 0.772755,-0.863139 1.317553,-1.925356 1.587488,-3.051986 0.03941,-0.164484 0.07362,-0.331921 0.144949,-0.485285 0.03567,-0.07668 0.08063,-0.149479 0.137512,-0.212058 0.05689,-0.06258 0.125981,-0.114796 0.204016,-0.147394 0.09192,-0.0384 0.195396,-0.04861 0.293052,-0.02893"
       id="path88"
       inkscape:path-effect="#path-effect89;#path-effect90"
       inkscape:original-d="m 32.754194,61.371225 c -0.302424,0.516507 -0.417132,1.117997 -0.531548,1.699273 -0.113355,0.575895 -0.249698,1.157285 -0.296169,1.743994 -0.197385,2.491967 1.426776,3.316358 3.43245,1.988621 1.630981,-1.079693 1.951603,-3.236754 2.977285,-4.741831 0.05528,-0.08112 0.194913,-0.03088 0.293052,-0.02893" />
    <path
       style="fill:none;fill-opacity:0.997741;stroke:#000000;stroke-width:1.546;stroke-dasharray:none;stroke-opacity:1;paint-order:normal"
       d="m 62.241781,62.344492 c 0.04146,0.930652 0.392885,1.84486 0.985487,2.563647 0.431737,0.523668 0.994233,0.946693 1.634609,1.171513 0.582403,0.204468 1.215758,0.241456 1.82776,0.161122 0.19253,-0.02527 0.384973,-0.06231 0.565139,-0.134744 0.180167,-0.07243 0.348483,-0.182159 0.468925,-0.334476 0.129403,-0.163651 0.19791,-0.369408 0.222002,-0.576644 0.02409,-0.207235 0.006,-0.417137 -0.02315,-0.623717 -0.110072,-0.77918 -0.377806,-1.530479 -0.73007,-2.234146 -0.203479,-0.406461 -0.435452,-0.798654 -0.693651,-1.17275"
       id="path90"
       inkscape:path-effect="#path-effect91;#path-effect92"
       inkscape:original-d="m 62.241781,62.344492 c 0.481835,2.431799 1.498648,3.960612 4.074671,3.919379 0.435321,-0.007 1.03446,-0.07828 1.349912,-0.422627 0.867262,-0.946692 -0.498721,-3.821078 -1.167532,-4.676947" />
    <path
       style="fill:#666666;fill-opacity:0.997741;stroke:#000000;stroke-width:0.761701;stroke-dasharray:none;stroke-opacity:1;paint-order:normal"
       d="M 183.11373,316.55937 C 153.18704,313.80976 126.73152,302.86396 103.83668,283.75904 98.854039,279.60119 89.826568,270.34285 85.466441,264.91898 81.465759,259.94225 75.459077,251.14573 72.518637,245.9575 64.900046,232.51495 59.399415,217.25823 56.541769,201.64357 c -2.880708,-15.74067 -2.880708,-33.59882 0,-49.33949 6.40718,-35.00991 25.472462,-65.939759 53.795991,-87.273925 19.50323,-14.690436 42.6725,-23.961496 67.90016,-27.169878 7.15438,-0.909873 24.98986,-0.909873 32.14423,0 27.55246,3.504044 52.36751,14.141338 73.38076,31.455624 2.15042,1.771877 6.51473,5.835051 9.69846,9.029277 16.87228,16.927842 28.73596,37.082282 35.35583,60.063692 8.84706,30.71332 6.89709,63.31868 -5.55765,92.92884 -4.92753,11.71483 -11.81389,23.21795 -20.10346,33.58127 -4.41841,5.52373 -13.71248,15.00016 -19.09504,19.46972 -20.88403,17.34159 -46.41466,28.33437 -73.49832,31.64632 -5.65064,0.69099 -22.1954,1.00704 -27.449,0.52435 z m -57.60678,-40.25449 c 6.17549,-1.00662 12.60217,-3.71178 18.78089,-7.90538 4.19406,-2.84657 11.56164,-10.19573 14.71362,-14.67682 3.37627,-4.79995 7.47048,-12.90988 8.39385,-16.62672 0.21476,-0.86451 0.0884,-0.96057 -2.25574,-1.71557 -1.36579,-0.43988 -2.72646,-0.79978 -3.02372,-0.79978 -0.33589,0 -0.76863,0.72381 -1.14323,1.9122 -0.94933,3.01161 -3.71072,8.43007 -6.20392,12.17347 -7.09019,10.64552 -17.13185,18.23802 -27.76157,20.99053 -3.4245,0.88675 -8.00274,1.05323 -10.34887,0.37632 -3.38123,-0.97556 -6.07719,-3.6379 -7.6356,-7.54039 -1.97782,-4.95271 -0.5665,-20.02203 2.9993,-32.02495 0.5846,-1.96785 0.93239,-3.69645 0.77287,-3.84132 -0.15952,-0.14486 -1.40605,-0.62812 -2.77006,-1.0739 -2.8738,-0.93919 -2.72685,-1.03805 -3.82799,2.57531 -2.51945,8.26755 -4.34654,19.69636 -4.34654,27.18843 0,9.65006 3.41188,16.18649 10.18013,19.50293 4.05862,1.98873 7.8357,2.40511 13.47658,1.48564 z m 135.69225,-0.22755 c 6.88099,-1.43494 12.26054,-7.10951 13.83098,-14.58948 1.04161,-4.96114 0.52097,-13.37514 -1.46222,-23.63091 -0.86889,-4.49335 -2.84746,-12.1145 -3.36071,-12.94496 -0.20664,-0.33435 -0.94708,-0.21478 -3.05144,0.49275 -1.52822,0.51382 -2.77859,1.0872 -2.77859,1.27419 0,0.18698 0.48505,1.97268 1.07787,3.96821 1.99504,6.71555 3.98374,18.95274 3.97319,24.44844 -0.0131,6.84169 -2.52998,11.78265 -7.1601,14.05641 -1.83003,0.8987 -2.42318,1.00263 -5.65613,0.99107 -11.66722,-0.0417 -25.4113,-8.80637 -33.98039,-21.66945 -2.65532,-3.9859 -5.4332,-9.43592 -6.31807,-12.39561 -0.25859,-0.86491 -0.64423,-1.63937 -0.85698,-1.72101 -0.21275,-0.0816 -1.5228,0.23895 -2.91123,0.71241 -2.33003,0.79457 -2.51894,0.93571 -2.45343,1.83304 0.10407,1.42555 3.28103,8.59328 5.3376,12.04247 6.92167,11.60872 17.67118,20.97851 28.72209,25.03556 6.10559,2.2415 12.55182,3.0344 17.04756,2.09687 z M 132.91095,256.38141 c 6.61954,-3.24789 13.03921,-12.72131 13.18249,-19.45319 0.0254,-1.19186 0.1798,-2.96339 0.3432,-3.93673 l 0.29707,-1.76971 -1.55284,0.20828 c -2.75058,0.36893 -4.30116,2.11403 -5.28933,5.95285 -1.47056,5.71281 -5.75117,11.46469 -10.05054,13.50497 -2.65529,1.26008 -3.08796,1.27106 -4.46387,0.11331 -1.80146,-1.51582 -2.1267,-3.89031 -1.17832,-8.60241 0.42451,-2.10923 1.17166,-5.09402 1.66033,-6.63285 0.48867,-1.53883 0.77187,-2.90133 0.62932,-3.02777 -0.33535,-0.29747 -4.78133,-1.76926 -5.34456,-1.76926 -0.46382,0 -2.3157,6.27588 -3.2505,11.01572 -1.01855,5.16443 -0.17533,9.95333 2.25184,12.78893 3.10296,3.62512 7.52037,4.1815 12.76571,1.60786 z m 122.24276,-3.62056 c 1.64295,-0.57967 3.23373,-1.95976 4.09518,-3.55281 1.04484,-1.93219 0.7506,-6.23745 -0.71981,-10.53212 -1.29497,-3.78223 -4.09861,-9.1517 -4.77852,-9.1517 -0.54321,0 -4.90369,2.99891 -4.90369,3.3725 0,0.16955 0.30421,0.73969 0.67602,1.26697 2.86467,4.06245 5.07306,11.80823 3.62751,12.72324 -1.21238,0.76742 -5.53225,0.46317 -7.76673,-0.54701 -3.35745,-1.51786 -5.87261,-4.89986 -6.74811,-9.07381 l -0.43062,-2.05301 -2.88027,0.24021 c -1.58416,0.13211 -2.95999,0.31991 -3.05741,0.41733 -0.43766,0.43766 0.75158,5.15247 1.92046,7.6138 2.40185,5.0576 7.34927,8.95439 12.49212,9.8393 2.39043,0.41131 6.48326,0.13944 8.47387,-0.56289 z M 301.4559,169.8407 c -0.14109,-6.03903 -0.40926,-10.14757 -0.79388,-12.16283 -1.79784,-9.41992 -6.05632,-17.17256 -13.17828,-23.9913 -5.36981,-5.1412 -11.28282,-8.71714 -18.23071,-11.02518 -6.02268,-2.00069 -8.70766,-2.39142 -16.43328,-2.39142 -7.70035,0 -10.42965,0.39441 -16.3286,2.35966 -13.57383,4.52215 -24.44036,14.6497 -29.34498,27.34937 -1.74673,4.52289 -2.73022,9.71462 -2.75188,14.52693 l -0.0179,3.98037 h -10.39556 -10.39555 l -0.2223,-3.88522 c -0.37184,-6.49894 -1.68069,-11.57727 -4.41724,-17.13892 -6.69431,-13.60519 -20.09248,-23.23846 -35.84644,-25.77353 -4.46057,-0.71777 -12.58605,-0.69313 -16.99727,0.0516 -17.56841,2.96584 -32.230676,15.08672 -37.58599,31.07127 -1.785048,5.32801 -2.196144,8.67668 -2.196144,17.88917 v 8.25963 H 193.99442 301.66895 Z m -97.21435,-57.29592 c 6.45631,-11.18228 11.73875,-20.397872 11.73875,-20.479085 0,-0.08121 -4.30697,-0.147658 -9.57103,-0.147658 h -9.57104 v -6.258184 -6.258181 l 3.37294,-1.674414 c 5.61444,-2.78715 10.20122,-7.666218 12.17921,-12.955311 0.43858,-1.172758 0.69915,-2.230555 0.57905,-2.350659 -0.20888,-0.208883 -9.74636,-2.317406 -9.83687,-2.174711 -0.0241,0.03795 -0.50176,0.924017 -1.06154,1.969048 -2.07063,3.865549 -7.39857,7.661453 -10.05434,7.163229 -1.82913,-0.343147 -6.03759,-2.521591 -7.7539,-4.01368 -0.85785,-0.745784 -2.05129,-2.226972 -2.65209,-3.291529 -0.90459,-1.602853 -1.22627,-1.901982 -1.87139,-1.740229 -0.42847,0.107431 -2.72936,0.645191 -5.11309,1.195023 -5.01215,1.156105 -4.86978,0.90493 -2.83497,5.001698 2.28204,4.594531 6.83589,8.833184 12.17361,11.331 l 2.39942,1.122826 v 6.460939 6.460942 l -9.15506,0.09639 -9.15506,0.09639 11.94009,20.673026 c 6.56705,11.37017 12.068,20.54513 12.22433,20.3888 0.15633,-0.15633 5.56667,-9.43338 12.02298,-20.61567 z m -78.35638,0.14059 c 0.65137,-1.93223 4.00034,-5.06023 7.21052,-6.73476 5.17139,-2.69757 12.96295,-4.56113 22.3473,-5.34496 2.3611,-0.19721 4.31229,-0.40418 4.33599,-0.45992 0.0237,-0.0557 -0.0102,-1.519727 -0.0754,-3.253305 l -0.11853,-3.151958 -2.23102,0.191666 c -12.63638,1.085597 -19.13795,2.423982 -25.38007,5.224629 -5.22458,2.344108 -9.9745,6.343968 -11.65378,9.813538 -1.34968,2.78858 -1.25391,3.08103 1.39451,4.25828 3.01502,1.3402 3.5595,1.26928 4.17052,-0.54321 z m 138.96587,0.3759 c 1.36854,-0.60523 2.05438,-1.11934 2.05438,-1.53996 0,-1.3098 -2.02942,-4.56376 -4.18872,-6.71618 -4.73183,-4.71676 -12.08794,-7.848503 -22.5594,-9.604286 -5.95153,-0.997912 -13.07053,-1.515383 -13.42663,-0.975967 -0.14594,0.221069 -0.26784,1.65157 -0.27088,3.17889 l -0.006,2.776943 1.53498,0.1889 c 0.84424,0.10389 2.91645,0.28996 4.60493,0.41349 9.56902,0.70009 18.78485,3.49822 23.90808,7.25902 1.84404,1.35365 3.90209,3.89728 3.90209,4.82276 0,0.87039 0.80609,1.50305 1.64637,1.29215 0.41028,-0.10297 1.67042,-0.59606 2.80033,-1.09576 z M 159.80755,89.480133 c 0.1178,-0.94356 0.29221,-2.325039 0.38757,-3.069954 0.0953,-0.744916 0.10569,-1.354392 0.023,-1.354392 -0.0827,0 -2.31939,-0.239442 -4.97037,-0.532095 -2.65099,-0.292654 -10.99599,-1.186241 -18.54447,-1.985755 -7.54848,-0.79951 -14.14418,-1.542157 -14.65713,-1.650321 -0.90525,-0.190886 -0.9464,-0.119341 -1.40193,2.437219 -0.25811,1.448635 -0.54276,2.827124 -0.63254,3.063316 -0.0977,0.256919 0.32045,0.516102 1.04076,0.64517 1.34967,0.241841 36.05191,4.043769 37.56985,4.116101 0.89652,0.04272 0.98754,-0.08548 1.18529,-1.669289 z m 85.82211,-0.266555 c 10.21184,-1.090166 19.02897,-2.081545 19.59363,-2.203068 1.12772,-0.2427 1.12277,-0.112483 0.17472,-4.594342 -0.34463,-1.629239 -0.42668,-1.72396 -1.32612,-1.53091 -0.52732,0.113177 -9.23007,1.093821 -19.33945,2.179209 -10.10937,1.085387 -18.45662,2.049375 -18.54944,2.142196 -0.26826,0.268259 0.31734,5.989032 0.61306,5.989032 0.14664,0 8.62176,-0.891951 18.8336,-1.982117 z M 161.80464,76.237911 v -3.039139 l -2.79908,-0.234071 c -8.05097,-0.673257 -15.75306,-2.606917 -20.14121,-5.056585 -3.82596,-2.13583 -7.07335,-5.527893 -7.17819,-7.497982 -0.0756,-1.420036 -1.00664,-1.535214 -3.79553,-0.469519 -2.58983,0.989628 -2.60308,1.001561 -2.36504,2.129763 0.6592,3.124189 4.2294,7.503255 8.28829,10.166082 5.67132,3.720655 17.21692,6.797345 26.2752,7.001858 l 1.71556,0.03873 z m 73.6789,1.920133 c 5.64322,-0.953715 9.58101,-2.181874 14.08206,-4.392053 3.10778,-1.526038 4.28197,-2.350137 6.5334,-4.585451 2.85257,-2.832143 4.82962,-6.107672 4.60499,-7.629453 -0.0906,-0.613796 -0.63702,-1.004464 -2.28609,-1.634466 -3.015,-1.151837 -3.33455,-1.110507 -3.7827,0.48924 -1.78597,6.375274 -12.53668,11.300081 -27.41539,12.558749 l -3.02675,0.256049 0.22767,2.178248 c 0.12522,1.198037 0.22768,2.581687 0.22768,3.074783 v 0.896531 l 3.34083,-0.255117 c 1.83746,-0.140315 5.20989,-0.570993 7.4943,-0.95706 z"
       id="path97"
       transform="scale(0.26458333)" />
    <path
       style="fill:#000000;fill-opacity:0.997741;stroke:#000000;stroke-width:2.58898;stroke-dasharray:none;stroke-opacity:1;paint-order:normal"
       d="m 96.790799,164.08583 c 1.153629,-11.92048 8.817511,-22.80904 19.875441,-28.23829 6.83257,-3.35467 10.02044,-4.0681 18.17784,-4.0681 8.2299,0 11.425,0.72493 18.26458,4.14399 11.12812,5.56287 18.63558,16.24716 19.7887,28.1624 l 0.35837,3.70311 H 134.84408 96.432424 Z"
       id="path100"
       transform="scale(0.26458333)" />
    <path
       style="fill:#000000;fill-opacity:0.997741;stroke:#000000;stroke-width:2.58898;stroke-dasharray:none;stroke-opacity:1;paint-order:normal"
       d="m 214.77937,163.06429 c 1.15363,-11.92049 8.81751,-22.80905 19.87543,-28.23829 6.83258,-3.35468 10.02045,-4.06811 18.17785,-4.06811 8.2299,0 11.425,0.72493 18.26458,4.14399 11.12812,5.56287 18.63558,16.24716 19.7887,28.16241 l 0.35837,3.7031 h -38.41165 -38.41166 z"
       id="path101"
       transform="scale(0.26458333)" />
    <path
       style="fill:#000000;fill-opacity:0.997741;stroke:#000000;stroke-width:0.0336628;stroke-dasharray:none;stroke-opacity:1;paint-order:normal"
       d="m 250.35859,130.2225 c 0.85074,-0.0619 2.25639,-0.0901 3.28411,-0.066 0.80043,0.0188 1.35395,0.0406 1.67997,0.0662 0.0977,0.008 -0.0952,0.009 -0.46289,0.003 -0.81241,-0.013 -3.24071,-0.013 -4.05426,-2e-5 -0.38066,0.006 -0.55775,0.005 -0.44693,-0.003 z"
       id="path102"
       transform="scale(0.26458333)" />
    <path
       style="fill:#ff00ff;fill-opacity:0.997741;stroke:#000000;stroke-width:0.00823819;stroke-dasharray:none;stroke-opacity:1;paint-order:normal"
       d="m 131.65039,131.28468 c 0.0297,-0.005 0.6305,-0.0448 0.9082,-0.0599 1.09193,-0.0594 2.24406,-0.0772 3.28321,-0.0509 0.68874,0.0174 1.26995,0.0449 1.93945,0.0917 0.19329,0.0135 0.23618,0.0171 0.23373,0.0195 -7.2e-4,7.1e-4 -0.0461,-2.7e-4 -0.10092,-0.002 -0.50463,-0.0177 -1.20694,-0.0315 -1.99609,-0.0393 -0.51023,-0.005 -2.14947,-0.002 -2.57422,0.004 -0.62038,0.009 -1.22583,0.0232 -1.56641,0.0356 -0.10132,0.004 -0.14259,0.004 -0.12695,0.001 z"
       id="path103"
       transform="scale(0.26458333)" />
    <path
       style="fill:#ff00ff;fill-opacity:0.997741;stroke:#000000;stroke-width:0;stroke-dasharray:none;stroke-opacity:1;paint-order:normal"
       d="m 188.83302,107.60448 c -1.76671,-3.06011 -3.20654,-5.5695 -3.19962,-5.57642 0.007,-0.007 2.90168,-0.009 6.43279,-0.005 l 6.4202,0.008 -3.20765,5.5556 c -1.7642,3.05558 -3.21347,5.56142 -3.22058,5.56853 -0.007,0.007 -1.45843,-2.49079 -3.22514,-5.5509 z"
       id="path104"
       transform="scale(0.26458333)" />
    <path
       style="fill:#800080;fill-opacity:0.997741;stroke:#000000;stroke-width:1.4022;stroke-dasharray:none;stroke-opacity:1;paint-order:normal"
       d="m 189.00722,107.61711 c -1.67683,-2.90614 -2.99989,-5.33278 -2.94014,-5.39253 0.0598,-0.0598 2.81263,-0.0785 6.11749,-0.0416 l 6.00885,0.067 -3.06871,5.3255 -3.06872,5.3255 z"
       id="path105"
       transform="scale(0.26458333)" />
    <path
       style="fill:#800080;fill-opacity:0.997741;stroke:#000000;stroke-width:0.671;stroke-dasharray:none;stroke-opacity:1;paint-order:normal"
       d="m 65.696604,61.729164 c -0.399371,-0.01073 -0.799489,0.0065 -1.196464,0.05145 -0.364498,0.0413 -0.738963,0.110938 -1.041902,0.3178 -0.06848,0.04676 -0.132857,0.100456 -0.185196,0.164767 -0.05234,0.06431 -0.0924,0.139713 -0.108807,0.22099 -0.02761,0.136744 0.01345,0.279463 0.07957,0.402299 0.06612,0.122837 0.156362,0.23067 0.236949,0.344543 0.305828,0.432151 0.478328,0.959272 0.849568,1.336719 0.328502,0.333994 0.781272,0.516505 1.234673,0.634371 0.145603,0.03785 0.293725,0.07012 0.444088,0.07499 0.150363,0.0049 0.304036,-0.01882 0.437731,-0.0878 0.160737,-0.08293 0.285848,-0.230312 0.347308,-0.40042 0.05176,-0.143265 0.05948,-0.299583 0.04261,-0.450976 -0.01686,-0.151393 -0.05749,-0.29904 -0.100365,-0.44521 -0.10905,-0.371776 -0.233909,-0.739731 -0.395475,-1.091874 -0.174172,-0.379619 -0.390707,-0.739782 -0.644294,-1.071654 z"
       id="path106"
       inkscape:path-effect="#path-effect106;#path-effect107"
       inkscape:original-d="m 65.696604,61.729164 c -0.32426,-0.05587 -0.664564,-0.03899 -0.989427,0.01638 -0.317043,0.05404 -1.542942,0.230119 -1.542942,0.738629 0,0.35732 0.327866,0.736008 0.495252,1.025102 0.287219,0.496059 0.511898,1.017399 1.003451,1.349198 0.356307,0.240506 0.731988,0.33306 1.153433,0.37751 1.127376,0.118901 1.10585,-0.563028 0.885843,-1.49365 -0.07812,-0.330459 -0.226909,-0.649047 -0.367932,-0.955908 -0.17835,-0.388088 -0.380212,-0.711192 -0.637678,-1.057267 z" />
    <path
       style="fill:#808080;fill-opacity:0.997741;stroke:none;stroke-width:0.370999;stroke-dasharray:none;stroke-opacity:1;paint-order:normal"
       d="m 64.214252,62.394231 0.370033,-0.210288"
       id="path109"
       inkscape:path-effect="#path-effect110;#path-effect111"
       inkscape:original-d="m 64.214252,62.394231 c 0.115478,-0.08839 0.239705,-0.150942 0.370033,-0.210288" />
    <path
       style="fill:#666666;fill-opacity:1;stroke:none;stroke-width:0.370999;stroke-dasharray:none;stroke-opacity:1;paint-order:normal"
       d="m 65.89556,61.401184 c -0.06563,0.124786 -0.137039,0.246536 -0.21391,0.364731 -0.03765,0.05788 -0.0766,0.114913 -0.11418,0.172841 -0.02869,0.04422 -0.05678,0.08924 -0.09257,0.12794 -0.04702,0.05085 -0.105823,0.08919 -0.165499,0.124336 -0.248319,0.146228 -0.522253,0.245917 -0.802716,0.312139 -0.160256,0.03784 -0.322837,0.06495 -0.485554,0.09018 -0.123119,0.01909 -0.251392,0.0368 -0.370346,-2.54e-4 -0.07053,-0.02197 -0.13407,-0.06228 -0.191971,-0.108149 -0.0579,-0.04587 -0.110906,-0.09755 -0.166755,-0.145896 -0.06981,-0.06043 -0.144122,-0.115703 -0.21123,-0.179125 -0.06711,-0.06342 -0.127598,-0.136254 -0.162357,-0.221797 -0.04305,-0.105964 -0.04373,-0.226459 -0.01355,-0.336783 0.03012,-0.11011 0.089,-0.209696 0.14158,-0.311019 0.0036,-0.007 0.0073,-0.01407 0.01086,-0.02113"
       id="path117"
       inkscape:path-effect="#path-effect117;#path-effect118"
       inkscape:original-d="m 65.89556,61.401184 c -0.07577,0.09994 -0.133334,0.213159 -0.193315,0.32348 -0.02897,0.05329 -0.04986,0.115294 -0.08717,0.163618 -0.02513,0.03256 -0.05916,0.0575 -0.08383,0.09034 -0.01389,0.0185 -0.02029,0.04232 -0.03433,0.06094 -0.0263,0.03487 -0.06644,0.07689 -0.100615,0.103105 -0.03247,0.0249 -0.07154,0.03942 -0.107289,0.0589 -0.19046,0.103828 -0.401878,0.173596 -0.607028,0.242906 -0.143156,0.04837 -0.287398,0.100285 -0.436981,0.125799 -0.106733,0.0182 -0.217789,0.02363 -0.325784,0.02752 -0.08877,0.0032 -0.189219,0.01267 -0.276664,-0.0064 -0.174419,-0.03809 -0.285149,-0.192629 -0.407133,-0.309157 -0.152646,-0.145817 -0.341328,-0.266594 -0.359066,-0.500457 -0.01066,-0.140499 0.06868,-0.275177 0.12913,-0.396491 0.01897,-0.03804 0.03115,-0.07926 0.05188,-0.116089" />
    <path
       style="fill:none;fill-opacity:1;stroke:none;stroke-width:0.35055;stroke-dasharray:none;stroke-opacity:1;paint-order:normal"
       d="m 248,245.01928 c -2.68326,-0.7418 -4.1173,-1.86333 -5.37154,-4.20096 -0.38903,-0.72507 -1.08334,-1.89247 -1.5429,-2.5942 -0.96595,-1.47497 -1.01833,-1.70523 -0.34803,-1.52995 0.7687,0.20103 3.9178,-0.48917 5.46615,-1.19804 1.34425,-0.61541 1.42597,-0.62457 1.74867,-0.19586 1.17893,1.56623 3.29765,7.00342 3.29765,8.46263 0,0.77555 -0.8289,1.6189 -1.5625,1.58974 -0.30938,-0.0123 -1.06875,-0.16231 -1.6875,-0.33336 z"
       id="path118"
       transform="scale(0.26458333)" />
    <path
       style="fill:#ff00ff;fill-opacity:1;stroke:none;stroke-width:0.123938;stroke-dasharray:none;stroke-opacity:1;paint-order:normal"
       d="m 126.52538,251.28449 c -0.38053,-0.18783 -1.12729,-0.81861 -1.46072,-1.23386 -0.33617,-0.41866 -0.63,-1.05159 -0.80014,-1.72357 -0.20864,-0.82404 -0.14482,-3.06031 0.13244,-4.64039 0.33402,-1.90357 1.04249,-4.89839 1.7019,-7.19424 0.31365,-1.09199 0.60969,-2.16931 0.65789,-2.39404 l 0.0876,-0.4086 1.30018,0.43062 c 3.26525,1.08145 6.8408,1.81152 10.33958,2.11118 1.06732,0.0914 1.25342,0.12889 1.22118,0.24593 -0.6694,2.42988 -1.36699,4.22759 -2.28299,5.88333 -1.18708,2.14572 -2.53962,3.92889 -4.19017,5.52427 -1.29244,1.24923 -2.31516,1.98323 -3.69904,2.65479 -1.7558,0.85204 -2.44459,1.02255 -3.00774,0.74458 z"
       id="path120"
       transform="scale(0.26458333)" />
    <path
       style="fill:#000000;fill-opacity:1;stroke:#000000;stroke-width:0.759685;stroke-dasharray:none;stroke-opacity:1;paint-order:normal"
       d="m 145.5332,237.33145 c -0.042,-0.005 -0.102,-0.0144 -0.1043,-0.0165 -0.002,-0.002 0.15286,-0.78471 0.16695,-0.84381 0.002,-0.009 0.002,-0.009 0.009,-0.002 0.004,0.004 0.0226,0.0214 0.0416,0.0386 0.019,0.0172 0.0437,0.04 0.0547,0.0508 l 0.02,0.0195 -0.003,0.0781 c -0.002,0.043 -0.005,0.15283 -0.007,0.24414 -0.004,0.15095 -0.007,0.23216 -0.0144,0.38184 l -0.003,0.0517 -0.0746,-5.8e-4 c -0.0411,-3.2e-4 -0.0799,-10e-4 -0.0864,-0.002 z"
       id="path122"
       transform="scale(0.26458333)" />
    <path
       style="fill:#000000;fill-opacity:1;stroke:#000000;stroke-width:0.00296752;stroke-dasharray:none;stroke-opacity:1;paint-order:normal"
       d="m 145.70312,236.09753 c -0.0161,-0.005 -0.0291,-0.0104 -0.0289,-0.0122 0.001,-0.01 0.0973,-0.48502 0.0981,-0.48428 4.9e-4,4.9e-4 -0.003,0.0667 -0.008,0.1472 -0.005,0.0805 -0.0112,0.18146 -0.0135,0.22443 -0.006,0.11423 -0.008,0.13483 -0.0133,0.13428 -0.003,-2.6e-4 -0.0177,-0.005 -0.0339,-0.009 z"
       id="path123"
       transform="scale(0.26458333)" />
    <path
       style="fill:#deaa87;stroke-width:0.00148376"
       d="m 183,315.93325 c -0.6875,-0.0993 -3.275,-0.42686 -5.75,-0.72789 -24.12746,-2.93456 -47.18797,-12.4084 -67.75,-27.8334 C 103.00577,282.50019 90.426588,270.14913 85.403704,263.71264 76.406182,252.18292 68.113279,237.45027 63.543487,224.87717 59.51319,213.78841 56.510907,200.17715 55.519649,188.5 50.800188,132.9041 80.53168,79.115966 130.15434,53.476131 c 16.05461,-8.295352 34.6296,-13.794102 51.61442,-15.279405 8.11723,-0.709842 25.78923,-0.271479 32.23124,0.799514 16.54913,2.751318 29.47242,6.914891 43.47028,14.005085 14.06675,7.125081 24.90423,15.137651 36.31808,26.851342 21.27949,21.838523 33.47201,46.546133 38.53861,78.096783 1.04062,6.48015 1.44201,24.25208 0.71306,31.57167 -2.65258,26.63523 -11.82592,50.17232 -27.9556,71.72888 -5.73796,7.66852 -19.12936,21.07102 -26.58443,26.60647 -22.24708,16.51864 -48.12749,26.30986 -73.75,27.90154 -7.24559,0.45009 -19.18151,0.54627 -21.75,0.17524 z m -51.86276,-40.37334 c 9.17321,-3.09388 14.923,-6.88937 22.7548,-15.02061 5.42404,-5.63144 9.68479,-12.09485 12.61839,-19.14169 2.07778,-4.99103 1.92693,-5.65946 -1.51043,-6.69312 -1.5125,-0.45483 -2.99043,-0.73475 -3.28429,-0.62204 -0.29385,0.1127 -1.25837,1.97591 -2.14338,4.14045 -6.81229,16.66151 -22.78739,30.2514 -36.88455,31.37741 -5.42926,0.43366 -6.92705,-0.0219 -9.89775,-3.01073 C 109.58666,263.36671 109,261.49633 109,254.50616 c 0,-6.49764 1.04403,-13.89208 3.05495,-21.63695 0.82311,-3.1701 1.38851,-6.04537 1.25646,-6.38949 -0.32175,-0.83847 -4.94196,-2.34011 -5.97744,-1.94276 -0.86004,0.33003 -2.20967,4.31703 -3.54181,10.46304 -2.92098,13.47623 -3.19589,24.46069 -0.77417,30.9333 1.78442,4.76931 6.26441,8.86393 11.62503,10.62505 3.39371,1.11492 11.72315,0.61073 16.49422,-0.99844 z m 129.64593,1.1468 c 7.18352,-1.31546 12.96283,-7.04112 14.69743,-14.561 0.71778,-3.11172 0.6122,-11.86419 -0.21312,-17.66838 -1.4005,-9.8493 -3.88788,-19.61305 -5.11666,-20.08458 -0.41747,-0.16019 -1.97218,0.0911 -3.45493,0.55854 -3.2029,1.00963 -3.20665,1.02887 -1.45814,7.48119 2.76995,10.22169 4.15262,24.01497 2.83031,28.23466 -1.022,3.26136 -3.04738,6.02859 -5.4377,7.4294 -1.99581,1.16963 -2.86739,1.36514 -5.88106,1.31927 -9.07854,-0.1382 -18.69176,-4.92655 -27.089,-13.49307 -5.33358,-5.4411 -9.52701,-12.11424 -13.10276,-20.85086 -0.53814,-1.31484 -0.73079,-1.40067 -2.42875,-1.08213 -1.01433,0.19029 -2.49706,0.68356 -3.29495,1.09617 -1.28042,0.66213 -1.41817,0.9507 -1.17352,2.45834 0.39244,2.41833 4.33872,10.55159 7.18298,14.80408 2.8343,4.23762 9.72361,11.62801 13.64007,14.63216 9.82293,7.53476 21.60823,11.31782 30.2998,9.72621 z M 133.32306,256.72036 c 6.41792,-3.09483 12.25189,-11.48856 13.2035,-18.99677 0.25956,-2.04798 0.57062,-4.45484 0.69125,-5.34859 0.20779,-1.53959 0.13556,-1.6249 -1.37425,-1.62313 -2.21585,0.003 -4.7688,1.69708 -5.61763,3.72862 -0.8204,1.96349 -0.95155,1.96631 -8.80041,0.1891 -3.12014,-0.70649 -4.38671,-1.21719 -4.54796,-1.83379 -0.13736,-0.52527 -1.32987,-1.20337 -3.09445,-1.7596 -1.57904,-0.49775 -2.93323,-0.83102 -3.00931,-0.7406 -1.38468,1.64552 -3.7738,11.58301 -3.7738,15.697 0,4.39381 0.78526,6.85164 2.9654,9.28167 3.35547,3.74007 7.59261,4.18609 13.35766,1.40609 z m 123.31877,-4.09461 c 3.69034,-2.06818 4.6672,-5.85929 3.08403,-11.9689 -0.97993,-3.78167 -2.89371,-8.12698 -4.51617,-10.25414 l -1.25749,-1.64865 -1.94217,0.99082 c -1.0682,0.54496 -2.08323,1.21904 -2.25562,1.49797 -0.17238,0.27893 -1.5939,0.5425 -3.15892,0.5857 l -2.84549,0.0786 2.42482,0.29645 2.42482,0.29645 -1.07256,1.35778 c -1.78502,2.25968 -6.68988,3.14606 -8.19653,1.48123 -0.71802,-0.79341 -1.25369,-0.85931 -4.15022,-0.5106 -1.82919,0.22021 -3.44168,0.51627 -3.58332,0.65791 -0.46448,0.46448 0.97932,5.96011 2.23668,8.51368 2.23141,4.5317 7.13003,8.57589 11.8865,9.81318 2.70968,0.70487 8.70899,0.0526 10.92164,-1.18743 z M 302.23442,175.625 c -0.11929,-2.26875 -0.32254,-7.1625 -0.45167,-10.875 -0.45994,-13.22344 -4.53422,-22.31656 -14.1444,-31.56804 -6.29411,-6.05917 -12.16626,-9.35338 -21.88835,-12.27914 -2.47322,-0.74429 -4.79983,-0.90206 -13.25,-0.89849 l -10.25,0.004 -5.64866,1.93925 c -7.20376,2.47313 -13.18991,6.0304 -18.36522,10.91352 C 209.11535,141.4673 204,152.41531 204,163.32998 V 167.75 h -10 -10 l -0.004,-2.375 c -0.009,-5.55741 -1.82098,-12.74212 -4.63459,-18.375 -5.97749,-11.96703 -16.16241,-20.25845 -30.21959,-24.60143 -4.15687,-1.28426 -4.9275,-1.35692 -14.39204,-1.35692 -9.46264,0 -10.23581,0.0729 -14.38832,1.35584 -17.07059,5.27426 -29.265178,17.58534 -33.388534,33.7075 -0.679439,2.65659 -1.03793,6.46759 -1.285388,13.66453 L 85.344593,179.75 H 193.89795 302.45132 Z M 196.43675,127.36571 C 207.42604,108.3911 216.5,92.31273 216.5,91.81518 216.5,91.41477 213.73039,91.25 207,91.25 h -9.5 v -5.722736 -5.722736 l 3.54622,-1.863488 c 4.44972,-2.33826 8.89139,-6.721796 10.91573,-10.772851 2.44529,-4.893462 2.32904,-5.149168 -2.89885,-6.376531 -6.07703,-1.426718 -6.36318,-1.393696 -7.51673,0.867449 -1.13588,2.22651 -4.35678,5.278227 -6.80105,6.443818 -1.42947,0.681669 -2.03434,0.71877 -3.68,0.225717 -2.92957,-0.877718 -6.57752,-3.521839 -8.55882,-6.203642 -2.01732,-2.730547 -2.09494,-2.742372 -8.0065,-1.219697 -5.10633,1.315265 -5.35706,1.846717 -2.97753,6.311164 2.0179,3.785968 6.8624,8.456221 10.87048,10.479497 L 185.5,79.264395 V 85.257197 91.25 h -8.97049 c -4.93377,0 -9.06382,0.16875 -9.17788,0.375 -0.11406,0.20625 2.14925,4.425 5.02959,9.375 16.98965,29.1975 19.16993,32.76327 20.01922,32.74071 0.19226,-0.005 2.0086,-2.87385 4.03631,-6.375 z M 126.24448,113.5 c 1.30206,-2.51533 2.57796,-3.88258 5.3515,-5.73468 5.01707,-3.35027 12.54391,-5.3073 26.08303,-6.78178 l 2.92901,-0.31899 -0.19384,-3.430435 c -0.10661,-1.88674 -0.35922,-3.59582 -0.56135,-3.797955 -0.55652,-0.556515 -15.02118,1.15328 -19.85283,2.346705 -8.73043,2.156425 -17.55483,7.674205 -20.02891,12.523815 -1.53495,3.00873 -1.30333,4.07761 1.15391,5.32528 2.53385,1.28655 4.41022,1.23819 5.11948,-0.13196 z m 138.63814,0.26005 c 1.17294,-0.53239 2.27041,-1.32705 2.43881,-1.7659 0.87372,-2.27688 -4.2239,-8.54969 -9.49691,-11.68629 -3.41704,-2.032605 -9.72212,-4.216225 -15.12313,-5.237555 C 237.07313,94.005995 228.54478,93.13035 227.16936,93.47556 226.08448,93.74785 226,94.01901 226,97.22889 v 3.45984 l 2.125,0.26073 c 1.16875,0.1434 4.35673,0.51573 7.0844,0.82741 12.28639,1.40389 22.41488,6.07172 24.62374,11.34813 0.806,1.92533 1.90289,2.06328 5.04948,0.63505 z M 160.18014,90.875 c 0.13614,-0.48125 0.39728,-2.05526 0.58031,-3.497805 0.2513,-1.980629 0.16834,-2.677104 -0.33884,-2.844586 C 160.05223,84.410628 152.1,83.504935 142.75,82.519959 133.4,81.534982 124.70313,80.595212 123.42361,80.43158 c -2.73228,-0.349423 -3.10693,0.07546 -3.65656,4.146867 -0.30245,2.24043 -0.22807,2.614873 0.56744,2.856313 0.50353,0.15283 8.11551,1.06585 16.91551,2.028935 8.8,0.963085 16.675,1.83778 17.5,1.943765 3.78883,0.486755 5.18041,0.3503 5.43014,-0.53246 z m 83.83639,-0.873115 C 268.49477,87.36592 266.22276,87.78108 266.40399,85.911082 266.60842,83.801612 265.6228,80.25 264.83296,80.25 c -1.21082,0 -36.59749,4.007722 -38.02252,4.306246 -1.42637,0.298805 -1.43714,0.328239 -1.17549,3.213709 0.28762,3.17193 0.59951,3.980045 1.53609,3.980045 0.33662,0 7.91709,-0.78665 16.84549,-1.748115 z m -7.09545,-11.519807 c 8.61483,-1.614275 14.80346,-4.424211 19.34172,-8.78207 3.24681,-3.117746 5.49219,-6.858932 5.01636,-8.358126 -0.35995,-1.13409 -3.32557,-2.591882 -5.27273,-2.591882 -1.23644,0 -1.60338,0.324944 -2.39964,2.125 -2.67344,6.04369 -11.29322,9.659931 -27.79081,11.65903 l -2.43401,0.294942 0.30351,1.835514 c 0.16693,1.009533 0.30599,2.632252 0.30901,3.606042 l 0.006,1.770528 4.32383,-0.379105 c 2.3781,-0.208508 6.24686,-0.739451 8.59725,-1.179873 z M 162.5,76.272656 v -3.477343 l -1.625,-0.241649 c -0.89375,-0.132907 -3.60145,-0.490129 -6.01712,-0.793827 -4.97511,-0.625471 -11.93082,-2.516563 -14.98237,-4.073347 -2.97744,-1.518976 -7.20032,-5.685511 -7.55382,-7.453039 C 132.07176,58.983809 131.7882,58.75 130.52262,58.75 c -0.82631,0 -2.40694,0.36193 -3.5125,0.80429 C 125.41673,60.191838 125,60.616717 125,61.603725 c 0,3.744155 5.57876,9.944331 11.51781,12.800774 6.19635,2.980195 15.50543,5.156233 22.60719,5.28453 L 162.5,79.75 Z"
       id="path1"
       transform="scale(0.26458333)" />
    <path
       style="fill:#ff00ff;fill-opacity:1;stroke-width:0.00074188"
       d="m 248,245.01928 c -2.68326,-0.7418 -4.1173,-1.86333 -5.37153,-4.20095 -0.38904,-0.72508 -1.08335,-1.89247 -1.54291,-2.59421 -0.96595,-1.47497 -1.01833,-1.70523 -0.34803,-1.52994 0.7687,0.20102 3.9178,-0.48918 5.46615,-1.19804 1.34425,-0.61542 1.42597,-0.62458 1.74867,-0.19587 1.17893,1.56623 3.29765,7.00342 3.29765,8.46264 0,0.77554 -0.8289,1.61889 -1.5625,1.58974 -0.30937,-0.0123 -1.06875,-0.16231 -1.6875,-0.33337 z"
       id="path2"
       transform="scale(0.26458333)" />
    <path
       style="fill:#ff00ff;fill-opacity:1;stroke-width:0.00074188"
       d="m 191.19497,109.70622 c -2.38218,-4.07672 -3.74438,-6.61515 -3.61782,-6.7417 0.0775,-0.0775 2.1613,-0.0592 4.63062,0.0406 l 4.48965,0.18157 -2.25825,3.90665 c -1.24204,2.14865 -2.28863,3.94319 -2.32576,3.98786 -0.0371,0.0447 -0.45043,-0.57408 -0.91844,-1.375 z"
       id="path3"
       transform="scale(0.26458333)" />
  </g>
</svg>
