<?xml version="1.0" encoding="UTF-8" standalone="no"?>
<!-- Created with Inkscape (http://www.inkscape.org/) -->

<svg
   width="79.475937mm"
   height="79.475937mm"
   viewBox="0 0 79.475937 79.475937"
   version="1.1"
   id="svg1"
   inkscape:version="1.3.2 (091e20e, 2023-11-25, custom)"
   sodipodi:docname="CatPlayer.svg"
   inkscape:export-filename="DogEnemy.svg"
   inkscape:export-xdpi="96"
   inkscape:export-ydpi="96"
   xmlns:inkscape="http://www.inkscape.org/namespaces/inkscape"
   xmlns:sodipodi="http://sodipodi.sourceforge.net/DTD/sodipodi-0.dtd"
   xmlns="http://www.w3.org/2000/svg"
   xmlns:svg="http://www.w3.org/2000/svg">
  <sodipodi:namedview
     id="namedview1"
     pagecolor="#ffffff"
     bordercolor="#000000"
     borderopacity="0.25"
     inkscape:showpageshadow="2"
     inkscape:pageopacity="0.0"
     inkscape:pagecheckerboard="0"
     inkscape:deskcolor="#d1d1d1"
     inkscape:document-units="mm"
     inkscape:zoom="1.4142136"
     inkscape:cx="36.415998"
     inkscape:cy="172.1805"
     inkscape:window-width="1920"
     inkscape:window-height="991"
     inkscape:window-x="-9"
     inkscape:window-y="-9"
     inkscape:window-maximized="1"
     inkscape:current-layer="layer2" />
  <defs
     id="defs1">
    <inkscape:path-effect
       effect="spiro"
       id="path-effect34"
       is_visible="true"
       lpeversion="1" />
    <inkscape:path-effect
       effect="simplify"
       id="path-effect32"
       is_visible="true"
       lpeversion="1.3"
       threshold="32.4675"
       steps="1"
       smooth_angles="360"
       helper_size="0"
       simplify_individual_paths="false"
       simplify_just_coalesce="false" />
    <inkscape:path-effect
       effect="spiro"
       id="path-effect30"
       is_visible="true"
       lpeversion="1" />
    <inkscape:path-effect
       effect="simplify"
       id="path-effect28"
       is_visible="true"
       lpeversion="1.3"
       threshold="32.4675"
       steps="1"
       smooth_angles="360"
       helper_size="0"
       simplify_individual_paths="false"
       simplify_just_coalesce="false" />
    <inkscape:path-effect
       effect="spiro"
       id="path-effect26"
       is_visible="true"
       lpeversion="1" />
    <inkscape:path-effect
       effect="simplify"
       id="path-effect24"
       is_visible="true"
       lpeversion="1.3"
       threshold="32.4675"
       steps="1"
       smooth_angles="360"
       helper_size="0"
       simplify_individual_paths="false"
       simplify_just_coalesce="false" />
    <inkscape:path-effect
       effect="spiro"
       id="path-effect22"
       is_visible="true"
       lpeversion="1" />
    <inkscape:path-effect
       effect="simplify"
       id="path-effect21"
       is_visible="true"
       lpeversion="1.3"
       threshold="32.4675"
       steps="1"
       smooth_angles="360"
       helper_size="0"
       simplify_individual_paths="false"
       simplify_just_coalesce="false" />
    <inkscape:path-effect
       effect="spiro"
       id="path-effect20"
       is_visible="true"
       lpeversion="1" />
    <inkscape:path-effect
       effect="simplify"
       id="path-effect19"
       is_visible="true"
       lpeversion="1.3"
       threshold="32.4675"
       steps="1"
       smooth_angles="360"
       helper_size="0"
       simplify_individual_paths="false"
       simplify_just_coalesce="false" />
    <inkscape:path-effect
       effect="spiro"
       id="path-effect18"
       is_visible="true"
       lpeversion="1" />
    <inkscape:path-effect
       effect="simplify"
       id="path-effect16"
       is_visible="true"
       lpeversion="1.3"
       threshold="32.4675"
       steps="1"
       smooth_angles="360"
       helper_size="0"
       simplify_individual_paths="false"
       simplify_just_coalesce="false" />
    <inkscape:path-effect
       effect="spiro"
       id="path-effect14"
       is_visible="true"
       lpeversion="1" />
    <inkscape:path-effect
       effect="simplify"
       id="path-effect13"
       is_visible="true"
       lpeversion="1.3"
       threshold="32.4675"
       steps="1"
       smooth_angles="360"
       helper_size="0"
       simplify_individual_paths="false"
       simplify_just_coalesce="false" />
    <linearGradient
       id="swatch9"
       inkscape:swatch="solid">
      <stop
         style="stop-color:#000000;stop-opacity:1;"
         offset="0"
         id="stop9" />
    </linearGradient>
    <inkscape:path-effect
       effect="spiro"
       id="path-effect118"
       is_visible="true"
       lpeversion="1" />
    <inkscape:path-effect
       effect="simplify"
       id="path-effect117"
       is_visible="true"
       lpeversion="1.3"
       threshold="32.4675"
       steps="1"
       smooth_angles="360"
       helper_size="0"
       simplify_individual_paths="false"
       simplify_just_coalesce="false" />
    <inkscape:path-effect
       effect="spiro"
       id="path-effect111"
       is_visible="true"
       lpeversion="1" />
    <inkscape:path-effect
       effect="simplify"
       id="path-effect110"
       is_visible="true"
       lpeversion="1.3"
       threshold="32.4675"
       steps="1"
       smooth_angles="360"
       helper_size="0"
       simplify_individual_paths="false"
       simplify_just_coalesce="false" />
    <inkscape:path-effect
       effect="spiro"
       id="path-effect107"
       is_visible="true"
       lpeversion="1" />
    <inkscape:path-effect
       effect="simplify"
       id="path-effect106"
       is_visible="true"
       lpeversion="1.3"
       threshold="32.4675"
       steps="1"
       smooth_angles="360"
       helper_size="0"
       simplify_individual_paths="false"
       simplify_just_coalesce="false" />
    <inkscape:path-effect
       effect="spiro"
       id="path-effect92"
       is_visible="true"
       lpeversion="1" />
    <inkscape:path-effect
       effect="simplify"
       id="path-effect91"
       is_visible="true"
       lpeversion="1.3"
       threshold="32.4675"
       steps="1"
       smooth_angles="360"
       helper_size="0"
       simplify_individual_paths="false"
       simplify_just_coalesce="false" />
    <inkscape:path-effect
       effect="spiro"
       id="path-effect90"
       is_visible="true"
       lpeversion="1" />
    <inkscape:path-effect
       effect="simplify"
       id="path-effect89"
       is_visible="true"
       lpeversion="1.3"
       threshold="32.4675"
       steps="1"
       smooth_angles="360"
       helper_size="0"
       simplify_individual_paths="false"
       simplify_just_coalesce="false" />
    <inkscape:path-effect
       effect="spiro"
       id="path-effect88"
       is_visible="true"
       lpeversion="1" />
    <inkscape:path-effect
       effect="simplify"
       id="path-effect86"
       is_visible="true"
       lpeversion="1.3"
       threshold="32.4675"
       steps="1"
       smooth_angles="360"
       helper_size="0"
       simplify_individual_paths="false"
       simplify_just_coalesce="false" />
    <inkscape:path-effect
       effect="spiro"
       id="path-effect84"
       is_visible="true"
       lpeversion="1" />
    <inkscape:path-effect
       effect="simplify"
       id="path-effect83"
       is_visible="true"
       lpeversion="1.3"
       threshold="32.4675"
       steps="1"
       smooth_angles="360"
       helper_size="0"
       simplify_individual_paths="false"
       simplify_just_coalesce="false" />
    <inkscape:path-effect
       effect="spiro"
       id="path-effect67"
       is_visible="true"
       lpeversion="1" />
    <inkscape:path-effect
       effect="simplify"
       id="path-effect66"
       is_visible="true"
       lpeversion="1.3"
       threshold="32.4675"
       steps="1"
       smooth_angles="360"
       helper_size="0"
       simplify_individual_paths="false"
       simplify_just_coalesce="false" />
    <inkscape:path-effect
       effect="simplify"
       id="path-effect53"
       is_visible="true"
       lpeversion="1.3"
       threshold="32.4675"
       steps="1"
       smooth_angles="360"
       helper_size="0"
       simplify_individual_paths="false"
       simplify_just_coalesce="false" />
    <inkscape:path-effect
       effect="simplify"
       id="path-effect44"
       is_visible="true"
       lpeversion="1.3"
       threshold="32.4675"
       steps="1"
       smooth_angles="360"
       helper_size="0"
       simplify_individual_paths="false"
       simplify_just_coalesce="false" />
    <linearGradient
       id="swatch43"
       inkscape:swatch="solid">
      <stop
         style="stop-color:#000000;stop-opacity:1;"
         offset="0"
         id="stop43" />
    </linearGradient>
  </defs>
  <g
     inkscape:label="Layer 1"
     inkscape:groupmode="layer"
     id="layer1"
     transform="translate(-94.740598,-5.0283767)">
    <path
       style="fill:none;fill-opacity:0.997741;stroke:none;stroke-width:0.465;stroke-dasharray:none;stroke-opacity:1;paint-order:normal"
       d="m 65.606376,35.910779 c 0.0263,-3.837302 0.608341,-8.242724 3.763533,-10.809397 3.120304,-2.538293 7.608485,-1.903596 10.991534,-0.271685 4.407332,2.126005 8.321151,5.859034 9.679913,10.677204 0.867981,3.077858 -0.493044,6.26631 -2.697913,8.513147 -3.384766,3.449192 -8.297884,4.745283 -13.022566,4.931618 -6.436893,0.253862 -12.873594,-1.236759 -19.301512,-0.07114 -1.862555,0.337751 -3.416233,1.495034 -4.530883,3.013557 -3.578473,4.875067 -4.51603,11.076387 -5.100004,16.944544 -0.825109,8.291246 0.18172,16.753125 -1.494756,24.935176 -0.479411,2.339765 -1.149289,5.449335 -3.692261,6.141742 -3.381862,0.920822 -6.94394,-0.27366 -9.951882,-1.782103 -5.460025,-2.73813 -10.596388,-6.735227 -13.477894,-12.189203 -1.310925,-2.481255 -2.512063,-5.669885 -1.195755,-8.283468 0.369112,-0.732887 0.937251,-1.339416 1.346387,-2.047671"
       id="path43"
       inkscape:path-effect="#path-effect44"
       inkscape:original-d="m 65.606376,35.910779 c 0.03751,-26.319932 33.593013,-4.82967 22.427837,7.393329 -7.275867,7.965207 -17.551301,5.2818 -26.561742,5.032935 -2.631263,-0.07267 -7.70531,0.107347 -9.720601,2.111378 -8.245147,8.199086 -6.294268,27.977965 -7.28889,38.590521 -0.276873,2.954208 -0.620234,10.018157 -4.626483,10.984778 -8.437954,2.03589 -26.668468,-11.250676 -24.529084,-21.611815 0.217806,-1.054843 1.076603,-1.865868 1.614904,-2.798802" />
    <circle
       style="fill:none;fill-opacity:0.997741;stroke:#000000;stroke-width:2.64583;stroke-dasharray:none;stroke-opacity:1;paint-order:normal"
       id="path52"
       cx="134.47856"
       cy="44.766346"
       r="38.415054" />
    <path
       style="fill:none;fill-opacity:0.997741;stroke:#000000;stroke-width:2.64583;stroke-dasharray:none;stroke-opacity:1;paint-order:normal"
       d="m 79.792469,45.964284 c -18.984536,0 -37.96913,0 -56.953666,0"
       id="path53"
       inkscape:path-effect="#path-effect53"
       inkscape:original-d="M 79.792469,45.964284 H 22.838803"
       transform="translate(83.06737,-2.0579758)" />
    <path
       id="path62"
       style="fill:none;fill-opacity:0.997741;stroke:#000000;stroke-width:2.64583;stroke-dasharray:none;stroke-opacity:1;paint-order:normal"
       d="m 149.96242,31.051582 a 11.487072,10.676221 0 0 0 -11.48663,10.676351 11.487072,10.676221 0 0 0 0.1726,1.756999 h 22.62859 a 11.487072,10.676221 0 0 0 0.1726,-1.756999 11.487072,10.676221 0 0 0 -11.48716,-10.676351 z" />
    <path
       id="path63"
       style="fill:none;fill-opacity:0.997741;stroke:#000000;stroke-width:2.64583;stroke-dasharray:none;stroke-opacity:1;paint-order:normal"
       d="m 118.74461,31.321866 a 11.487072,10.676221 0 0 0 -11.48663,10.676351 11.487072,10.676221 0 0 0 0.1726,1.756999 h 22.62859 a 11.487072,10.676221 0 0 0 0.1726,-1.756999 11.487072,10.676221 0 0 0 -11.48716,-10.676351 z" />
    <g
       id="g70"
       transform="translate(83.06737,1.8611431)">
      <path
         sodipodi:type="star"
         style="fill:none;fill-opacity:0.997741;stroke:#000000;stroke-width:2.64583;stroke-dasharray:none;stroke-opacity:1;paint-order:normal"
         id="path64"
         inkscape:flatsided="false"
         sodipodi:sides="3"
         sodipodi:cx="46.75914"
         sodipodi:cy="23.784996"
         sodipodi:r1="4.6265178"
         sodipodi:r2="2.3132589"
         sodipodi:arg1="1.5707963"
         sodipodi:arg2="2.6179939"
         inkscape:rounded="0"
         inkscape:randomized="0"
         d="m 46.75914,28.411514 -2.003341,-3.469889 -2.003341,-3.469888 4.006682,0 4.006682,0 -2.003341,3.469889 z"
         inkscape:transform-center-y="1.1566292"
         transform="translate(4.0542609,0.27028406)" />
      <path
         style="fill:none;fill-opacity:0.997741;stroke:#000000;stroke-width:2.64583;stroke-dasharray:none;stroke-opacity:1;paint-order:normal"
         d="M 50.678259,21.757866 V 14.865623"
         id="path66"
         inkscape:path-effect="#path-effect66;#path-effect67"
         inkscape:original-d="M 50.678259,21.757866 V 14.865623" />
      <path
         style="fill:none;fill-opacity:0.997741;stroke:#000000;stroke-width:2.64583;stroke-dasharray:none;stroke-opacity:1;paint-order:normal"
         d="m 50.933397,15.958494 c 3.535714,-0.860039 4.109074,-3.631274 4.109074,-3.631274 v 0"
         id="path69" />
      <path
         style="fill:none;fill-opacity:0.997741;stroke:#000000;stroke-width:2.73756;stroke-dasharray:none;stroke-opacity:1;paint-order:normal"
         d="M 50.895596,15.938623 C 47.052033,15.09166 46.428751,12.362559 46.428751,12.362559 v 0"
         id="path70" />
    </g>
    <g
       id="g73"
       transform="translate(83.06737,-2.0579758)">
      <path
         style="fill:none;fill-opacity:0.997741;stroke:#000000;stroke-width:1.546;stroke-dasharray:none;stroke-opacity:1;paint-order:normal"
         d="m 59.438222,20.163127 c 8.313706,-0.382239 8.791507,-4.109073 8.791507,-4.109073 l -0.19112,0.286679"
         id="path71" />
      <path
         style="fill:none;fill-opacity:0.997741;stroke:#000000;stroke-width:1.546;stroke-dasharray:none;stroke-opacity:1;paint-order:normal"
         d="m 59.916023,23.316602 9.842664,-1.051159 0.477798,-0.09556"
         id="path72" />
      <path
         style="fill:none;fill-opacity:0.997741;stroke:#000000;stroke-width:1.62405;stroke-dasharray:none;stroke-opacity:1;paint-order:normal"
         d="m 59.98341,25.688315 c 9.280596,0.377863 9.813966,4.06203 9.813966,4.06203 l -0.213347,-0.283397"
         id="path73" />
    </g>
    <g
       id="g76"
       transform="matrix(-1,0,0,1,185.26319,-2.0579758)">
      <path
         style="fill:none;fill-opacity:0.997741;stroke:#000000;stroke-width:1.546;stroke-dasharray:none;stroke-opacity:1;paint-order:normal"
         d="m 59.438222,20.163127 c 8.313706,-0.382239 8.791507,-4.109073 8.791507,-4.109073 l -0.19112,0.286679"
         id="path74" />
      <path
         style="fill:none;fill-opacity:0.997741;stroke:#000000;stroke-width:1.546;stroke-dasharray:none;stroke-opacity:1;paint-order:normal"
         d="m 59.916023,23.316602 9.842664,-1.051159 0.477798,-0.09556"
         id="path75" />
      <path
         style="fill:none;fill-opacity:0.997741;stroke:#000000;stroke-width:1.62405;stroke-dasharray:none;stroke-opacity:1;paint-order:normal"
         d="m 59.98341,25.688315 c 9.280596,0.377863 9.813966,4.06203 9.813966,4.06203 l -0.213347,-0.283397"
         id="path76" />
    </g>
    <path
       style="fill:none;fill-opacity:0.997741;stroke:#000000;stroke-width:1.546;stroke-dasharray:none;stroke-opacity:1;paint-order:normal"
       d="m 56.2763,62.234891 c 0.84386,2.657576 2.409402,5.08215 4.48428,6.944862 1.661541,1.491639 3.678985,2.635767 5.875578,3.036622 1.076493,0.196449 2.233163,0.202652 3.213688,-0.283145 0.687822,-0.340778 1.251844,-0.911666 1.623974,-1.583043 0.403703,-0.728338 0.584901,-1.56396 0.62938,-2.39551 0.04448,-0.831549 -0.0426,-1.664247 -0.147196,-2.49039 -0.15247,-1.204286 -0.34274,-2.4053 -0.62789,-3.585233 -0.178487,-0.738565 -0.394011,-1.468178 -0.645491,-2.185181"
       id="path82"
       inkscape:path-effect="#path-effect83;#path-effect84"
       inkscape:original-d="m 56.2763,62.234891 c 1.802646,4.858433 6.366867,10.574147 12.146076,10.001864 1.218041,-0.120616 2.40183,-0.476843 2.953901,-1.663324 1.089078,-2.340576 0.607124,-6.010013 0.02339,-8.447265 -0.174503,-0.72858 -0.788299,-1.698805 -0.717044,-2.432293"
       transform="translate(83.06737,-2.0579758)" />
    <path
       style="fill:none;fill-opacity:0.997741;stroke:#000000;stroke-width:1.546;stroke-dasharray:none;stroke-opacity:1;paint-order:normal"
       d="m 56.2763,62.234891 c 0.84386,2.657576 2.409402,5.08215 4.48428,6.944862 1.661541,1.491639 3.678985,2.635767 5.875578,3.036622 1.076493,0.196449 2.233163,0.202652 3.213688,-0.283145 0.687822,-0.340778 1.251844,-0.911666 1.623974,-1.583043 0.403703,-0.728338 0.584901,-1.56396 0.62938,-2.39551 0.04448,-0.831549 -0.0426,-1.664247 -0.147196,-2.49039 -0.15247,-1.204286 -0.34274,-2.4053 -0.62789,-3.585233 -0.178487,-0.738565 -0.394011,-1.468178 -0.645491,-2.185181"
       id="path84"
       inkscape:path-effect="#path-effect86;#path-effect88"
       inkscape:original-d="m 56.2763,62.234891 c 1.802646,4.858433 6.366867,10.574147 12.146076,10.001864 1.218041,-0.120616 2.40183,-0.476843 2.953901,-1.663324 1.089078,-2.340576 0.607124,-6.010013 0.02339,-8.447265 -0.174503,-0.72858 -0.788299,-1.698805 -0.717044,-2.432293"
       transform="matrix(-1,0,0,1,182.91264,-1.9904048)" />
    <path
       style="fill:none;fill-opacity:0.997741;stroke:#000000;stroke-width:1.546;stroke-dasharray:none;stroke-opacity:1;paint-order:normal"
       d="m 32.754194,61.371225 c -0.248398,0.72673 -0.460624,1.465823 -0.63563,2.213628 -0.1935,0.826831 -0.340134,1.700757 -0.10456,2.516599 0.07219,0.25002 0.180347,0.491225 0.334253,0.701071 0.153905,0.209847 0.354756,0.387702 0.589995,0.498988 0.266838,0.126236 0.570653,0.163413 0.864424,0.134501 0.293771,-0.02891 0.578494,-0.121655 0.846967,-0.244371 0.619925,-0.283361 1.157951,-0.725806 1.612604,-1.233636 0.772755,-0.863139 1.317553,-1.925356 1.587488,-3.051986 0.03941,-0.164484 0.07362,-0.331921 0.144949,-0.485285 0.03567,-0.07668 0.08063,-0.149479 0.137512,-0.212058 0.05689,-0.06258 0.125981,-0.114796 0.204016,-0.147394 0.09192,-0.0384 0.195396,-0.04861 0.293052,-0.02893"
       id="path88"
       inkscape:path-effect="#path-effect89;#path-effect90"
       inkscape:original-d="m 32.754194,61.371225 c -0.302424,0.516507 -0.417132,1.117997 -0.531548,1.699273 -0.113355,0.575895 -0.249698,1.157285 -0.296169,1.743994 -0.197385,2.491967 1.426776,3.316358 3.43245,1.988621 1.630981,-1.079693 1.951603,-3.236754 2.977285,-4.741831 0.05528,-0.08112 0.194913,-0.03088 0.293052,-0.02893"
       transform="translate(83.06737,-2.0579758)" />
    <path
       style="fill:none;fill-opacity:0.997741;stroke:#000000;stroke-width:1.546;stroke-dasharray:none;stroke-opacity:1;paint-order:normal"
       d="m 62.241781,62.344492 c 0.04146,0.930652 0.392885,1.84486 0.985487,2.563647 0.431737,0.523668 0.994233,0.946693 1.634609,1.171513 0.582403,0.204468 1.215758,0.241456 1.82776,0.161122 0.19253,-0.02527 0.384973,-0.06231 0.565139,-0.134744 0.180167,-0.07243 0.348483,-0.182159 0.468925,-0.334476 0.129403,-0.163651 0.19791,-0.369408 0.222002,-0.576644 0.02409,-0.207235 0.006,-0.417137 -0.02315,-0.623717 -0.110072,-0.77918 -0.377806,-1.530479 -0.73007,-2.234146 -0.203479,-0.406461 -0.435452,-0.798654 -0.693651,-1.17275"
       id="path90"
       inkscape:path-effect="#path-effect91;#path-effect92"
       inkscape:original-d="m 62.241781,62.344492 c 0.481835,2.431799 1.498648,3.960612 4.074671,3.919379 0.435321,-0.007 1.03446,-0.07828 1.349912,-0.422627 0.867262,-0.946692 -0.498721,-3.821078 -1.167532,-4.676947"
       transform="translate(83.06737,-2.0579758)" />
    <path
       style="fill:#666666;fill-opacity:0.997741;stroke:#000000;stroke-width:0.201533;stroke-dasharray:none;stroke-opacity:1;paint-order:normal"
       d="m 131.51621,81.698356 c -7.9181,-0.727501 -14.91779,-3.623577 -20.97539,-8.67842 -1.31832,-1.100098 -3.70684,-3.549701 -4.86045,-4.984766 -1.05852,-1.31676 -2.64779,-3.644172 -3.42578,-5.016892 -2.01575,-3.556674 -3.471125,-7.593348 -4.227211,-11.724727 -0.762187,-4.164719 -0.762187,-8.889687 0,-13.054406 1.695233,-9.263039 6.739591,-17.446561 14.233521,-23.091226 5.16023,-3.886845 11.29043,-6.3398118 17.96525,-7.1886968 1.89293,-0.2407371 6.6119,-0.2407371 8.50483,0 7.28992,0.927112 13.85557,3.7415618 19.41533,8.3226338 0.56896,0.468809 1.72368,1.543857 2.56605,2.388996 4.46412,4.478825 7.60305,9.811354 9.35456,15.891852 2.34078,8.126232 1.82485,16.753067 -1.47046,24.587422 -1.30374,3.099548 -3.12576,6.143082 -5.31904,8.885044 -1.16904,1.461487 -3.6281,3.968792 -5.05223,5.151363 -5.52557,4.588296 -12.28055,7.496802 -19.44643,8.373089 -1.49507,0.182824 -5.87253,0.266446 -7.26255,0.138734 z M 116.27442,71.047689 c 1.63393,-0.266335 3.33432,-0.982075 4.96911,-2.091632 1.10968,-0.753154 3.05901,-2.69762 3.89298,-3.883241 0.8933,-1.269987 1.97656,-3.415739 2.22087,-4.399153 0.0568,-0.228735 0.0234,-0.254151 -0.59683,-0.453912 -0.36137,-0.116385 -0.72138,-0.211608 -0.80003,-0.211608 -0.0889,0 -0.20337,0.191508 -0.30248,0.505936 -0.25118,0.796822 -0.98179,2.230456 -1.64145,3.220897 -1.87595,2.816628 -4.5328,4.825476 -7.34525,5.553745 -0.90607,0.234619 -2.11739,0.278667 -2.73814,0.09957 -0.89462,-0.258117 -1.60792,-0.962528 -2.02025,-1.995062 -0.5233,-1.310404 -0.14989,-5.297495 0.79356,-8.473268 0.15468,-0.52066 0.2467,-0.978019 0.20449,-1.016349 -0.0422,-0.03833 -0.37202,-0.16619 -0.73291,-0.284136 -0.76036,-0.248494 -0.72148,-0.274651 -1.01282,0.681384 -0.66661,2.187456 -1.15002,5.211329 -1.15002,7.193606 0,2.553245 0.90272,4.282675 2.69349,5.16015 1.07384,0.526184 2.07319,0.636352 3.56568,0.393075 z m 35.9019,-0.06021 c 1.8206,-0.379661 3.24394,-1.881058 3.65945,-3.860133 0.27559,-1.312635 0.13784,-3.538839 -0.38688,-6.252345 -0.22989,-1.188865 -0.75339,-3.205295 -0.88919,-3.42502 -0.0547,-0.08846 -0.25058,-0.05683 -0.80736,0.130373 -0.40434,0.135948 -0.73517,0.287655 -0.73517,0.337129 0,0.04947 0.12834,0.521939 0.28519,1.049923 0.52786,1.776822 1.05403,5.014579 1.05124,6.468649 -0.003,1.810198 -0.66939,3.117493 -1.89444,3.719092 -0.4842,0.237781 -0.64113,0.265279 -1.49652,0.262221 -3.08695,-0.01103 -6.72341,-2.330019 -8.99064,-5.733375 -0.70256,-1.054603 -1.43754,-2.496588 -1.67166,-3.279672 -0.0684,-0.228841 -0.17045,-0.43375 -0.22674,-0.455351 -0.0563,-0.02159 -0.40291,0.06322 -0.77027,0.188492 -0.61648,0.21023 -0.66647,0.247573 -0.64913,0.484992 0.0275,0.377177 0.8681,2.273638 1.41224,3.186237 1.83136,3.071473 4.6755,5.550564 7.59938,6.623991 1.61544,0.593064 3.32101,0.802852 4.5105,0.554797 z m -33.94293,-5.211212 c 1.75142,-0.859337 3.44996,-3.365846 3.48787,-5.14699 0.007,-0.315346 0.0476,-0.784063 0.0908,-1.041593 l 0.0786,-0.468235 -0.41085,0.05511 c -0.72776,0.09761 -1.13802,0.559337 -1.39947,1.575025 -0.38909,1.511514 -1.52166,3.033366 -2.65921,3.57319 -0.70254,0.333396 -0.81702,0.336301 -1.18106,0.02998 -0.47664,-0.401061 -0.56269,-1.029311 -0.31177,-2.276055 0.11232,-0.558067 0.31001,-1.347792 0.4393,-1.754941 0.12929,-0.407149 0.20422,-0.767644 0.16651,-0.801098 -0.0887,-0.0787 -1.26506,-0.468116 -1.41408,-0.468116 -0.12272,0 -0.6127,1.660493 -0.86003,2.914576 -0.26949,1.366422 -0.0464,2.633485 0.5958,3.383737 0.82099,0.959147 1.98976,1.106355 3.37759,0.425413 z m 32.3434,-0.95794 c 0.4347,-0.153371 0.85559,-0.518519 1.08351,-0.940014 0.27645,-0.511225 0.1986,-1.650325 -0.19045,-2.786623 -0.34262,-1.000715 -1.08442,-2.421388 -1.26431,-2.421388 -0.14373,0 -1.29744,0.793462 -1.29744,0.892308 0,0.04486 0.0805,0.195709 0.17887,0.335219 0.75794,1.074856 1.34224,3.124261 0.95978,3.366357 -0.32078,0.203047 -1.46375,0.122547 -2.05495,-0.14473 -0.88833,-0.4016 -1.5538,-1.296421 -1.78544,-2.400779 l -0.11393,-0.543192 -0.76208,0.06356 c -0.41914,0.03495 -0.78316,0.08464 -0.80894,0.110418 -0.11579,0.115798 0.19886,1.363258 0.50813,2.014485 0.63549,1.338157 1.94449,2.369182 3.3052,2.603315 0.63247,0.108825 1.71537,0.03689 2.24205,-0.148932 z m 12.25079,-21.939289 c -0.0373,-1.597827 -0.10829,-2.684878 -0.21005,-3.218082 -0.47568,-2.492354 -1.6024,-4.543573 -3.48676,-6.347698 -1.42076,-1.360276 -2.98524,-2.30641 -4.82354,-2.917079 -1.5935,-0.529349 -2.3039,-0.63273 -4.34797,-0.63273 -2.03738,0 -2.75951,0.104354 -4.32027,0.624327 -3.59141,1.196485 -6.46652,3.876066 -7.7642,7.236187 -0.46215,1.196682 -0.72237,2.570327 -0.7281,3.843584 l -0.005,1.053139 h -2.7505 -2.75049 l -0.0588,-1.027964 c -0.0984,-1.719511 -0.44469,-3.063153 -1.16873,-4.534673 -1.7712,-3.599706 -5.31614,-6.148509 -9.48437,-6.819246 -1.18019,-0.18991 -3.33006,-0.183391 -4.4972,0.01365 -4.6483,0.784712 -8.52769,3.991695 -9.94462,8.220941 -0.4723,1.409702 -0.58106,2.295704 -0.58106,4.733176 v 2.18536 h 28.48888 28.48888 z m -25.7213,-15.159545 c 1.70823,-2.958645 3.10588,-5.396937 3.10588,-5.418425 0,-0.02149 -1.13956,-0.03907 -2.53234,-0.03907 h -2.53234 v -1.655811 -1.65581 l 0.89243,-0.443022 c 1.48548,-0.737434 2.69907,-2.028354 3.22241,-3.42776 0.11604,-0.310292 0.18499,-0.590167 0.15321,-0.621945 -0.0553,-0.05527 -2.57872,-0.613147 -2.60267,-0.575392 -0.006,0.01004 -0.13276,0.244479 -0.28087,0.520977 -0.54785,1.02276 -1.95754,2.027093 -2.66021,1.895271 -0.48396,-0.09079 -1.59744,-0.667171 -2.05155,-1.061953 -0.22697,-0.197322 -0.54274,-0.589219 -0.7017,-0.870883 -0.23934,-0.424088 -0.32445,-0.503233 -0.49514,-0.460436 -0.11336,0.02843 -0.72214,0.170707 -1.35284,0.316183 -1.32613,0.305886 -1.28846,0.23943 -0.75008,1.323366 0.60379,1.215637 1.80866,2.337113 3.22093,2.997994 l 0.63485,0.297081 v 1.709457 1.709457 l -2.42228,0.0255 -2.42227,0.0255 3.15915,5.469738 c 1.73753,3.008357 3.19299,5.435899 3.23435,5.394536 0.0414,-0.04136 1.47285,-2.495915 3.18108,-5.454562 z m -20.73179,0.0372 c 0.17234,-0.511235 1.05842,-1.338852 1.90778,-1.781905 1.36826,-0.713732 3.42978,-1.206799 5.91272,-1.414187 0.62471,-0.05218 1.14096,-0.106939 1.14723,-0.121687 0.006,-0.01474 -0.003,-0.402095 -0.0199,-0.860771 l -0.0314,-0.833955 -0.59029,0.05071 c -3.34337,0.28723 -5.06358,0.641345 -6.71514,1.382349 -1.38234,0.620212 -2.63909,1.678508 -3.0834,2.596499 -0.3571,0.737812 -0.33176,0.815189 0.36897,1.12667 0.79772,0.354594 0.94178,0.33583 1.10345,-0.143725 z m 36.76805,0.09946 c 0.36209,-0.160133 0.54355,-0.296158 0.54355,-0.407447 0,-0.346552 -0.53695,-1.207495 -1.10826,-1.77699 -1.25196,-1.247976 -3.19827,-2.076583 -5.96884,-2.541134 -1.57468,-0.264031 -3.45825,-0.400945 -3.55246,-0.258224 -0.0386,0.05849 -0.0709,0.436978 -0.0717,0.841081 l -0.002,0.734733 0.40613,0.04998 c 0.22337,0.02749 0.77164,0.07672 1.21839,0.109402 2.5318,0.185232 4.97015,0.925571 6.32567,1.920616 0.48791,0.358153 1.03243,1.031155 1.03243,1.276022 0,0.23029 0.21328,0.397682 0.4356,0.341881 0.10856,-0.02724 0.44197,-0.157707 0.74093,-0.28992 z m -27.79276,-6.239175 c 0.0312,-0.249651 0.0773,-0.615167 0.10255,-0.812259 0.0252,-0.197092 0.028,-0.35835 0.006,-0.35835 -0.0219,0 -0.61367,-0.06335 -1.31507,-0.140783 -0.70141,-0.07743 -2.90936,-0.31386 -4.90656,-0.525398 -1.9972,-0.211537 -3.74232,-0.408029 -3.87803,-0.436647 -0.23952,-0.05051 -0.25041,-0.03158 -0.37093,0.644847 -0.0683,0.383285 -0.14361,0.74801 -0.16736,0.810503 -0.0258,0.06798 0.0848,0.136552 0.27537,0.170701 0.3571,0.06399 9.53873,1.069914 9.94035,1.089052 0.23721,0.0113 0.26129,-0.02262 0.31361,-0.441666 z m 22.7071,-0.07053 c 2.70189,-0.28844 5.03475,-0.550743 5.18415,-0.582896 0.29838,-0.06421 0.29707,-0.02976 0.0462,-1.215586 -0.0912,-0.431069 -0.11289,-0.456131 -0.35087,-0.405053 -0.13952,0.02994 -2.44212,0.289407 -5.1169,0.576582 -2.67477,0.287176 -4.88331,0.542231 -4.90787,0.56679 -0.071,0.07098 0.084,1.584598 0.16221,1.584598 0.0388,0 2.28117,-0.235996 4.98305,-0.524435 z m -22.1787,-3.433146 v -0.804105 l -0.74059,-0.06193 c -2.13015,-0.178133 -4.168,-0.689747 -5.32903,-1.337889 -1.01228,-0.565105 -1.87149,-1.462588 -1.89923,-1.983841 -0.02,-0.375717 -0.26634,-0.406192 -1.00423,-0.124226 -0.68523,0.261839 -0.68873,0.264996 -0.62575,0.563499 0.17441,0.826609 1.11903,1.985236 2.19294,2.689776 1.50054,0.984423 4.55531,1.798464 6.95198,1.852575 l 0.45391,0.01025 z m 19.49421,0.508036 c 1.4931,-0.252338 2.53497,-0.577288 3.72588,-1.162064 0.82226,-0.403765 1.13293,-0.621808 1.72863,-1.213234 0.75474,-0.749338 1.27783,-1.615989 1.2184,-2.018626 -0.024,-0.162401 -0.16855,-0.265765 -0.60486,-0.432453 -0.79772,-0.304757 -0.88227,-0.293822 -1.00084,0.129445 -0.47254,1.686791 -3.317,2.989813 -7.25366,3.322835 l -0.80082,0.06775 0.0602,0.576328 c 0.0331,0.316981 0.0602,0.683071 0.0602,0.813536 v 0.237207 l 0.88393,-0.0675 c 0.48616,-0.03712 1.37845,-0.151076 1.98287,-0.253222 z"
       id="path97" />
    <path
       style="fill:#000000;fill-opacity:0.997741;stroke:#000000;stroke-width:0.685001;stroke-dasharray:none;stroke-opacity:1;paint-order:normal"
       d="m 108.6766,41.356399 c 0.30523,-3.15396 2.33297,-6.034891 5.25871,-7.47138 1.80779,-0.88759 2.65124,-1.076352 4.80956,-1.076352 2.17749,0 3.02286,0.191804 4.8325,1.096431 2.94431,1.471842 4.93066,4.298727 5.23576,7.451301 l 0.0948,0.979781 h -10.16308 -10.16309 z"
       id="path100" />
    <path
       style="fill:#000000;fill-opacity:0.997741;stroke:#000000;stroke-width:0.685001;stroke-dasharray:none;stroke-opacity:1;paint-order:normal"
       d="m 139.89441,41.086117 c 0.30523,-3.153963 2.33297,-6.034895 5.25871,-7.471381 1.80778,-0.887592 2.65124,-1.076354 4.80955,-1.076354 2.1775,0 3.02287,0.191804 4.83251,1.096431 2.94431,1.471842 4.93066,4.298727 5.23576,7.451304 l 0.0948,0.979778 h -10.16309 -10.16308 z"
       id="path101" />
    <path
       style="fill:#000000;fill-opacity:0.997741;stroke:#000000;stroke-width:0.00890662;stroke-dasharray:none;stroke-opacity:1;paint-order:normal"
       d="m 149.30808,32.396727 c 0.22509,-0.01638 0.597,-0.02384 0.86892,-0.01746 0.21178,0.005 0.35823,0.01074 0.44449,0.01752 0.0259,0.0021 -0.0252,0.0024 -0.12247,7.93e-4 -0.21495,-0.0034 -0.85744,-0.0034 -1.07269,-5e-6 -0.10072,0.0016 -0.14757,0.0013 -0.11825,-7.94e-4 z"
       id="path102" />
    <path
       style="fill:#ff00ff;fill-opacity:0.997741;stroke:#000000;stroke-width:0.00217969;stroke-dasharray:none;stroke-opacity:1;paint-order:normal"
       d="m 117.89987,32.677762 c 0.008,-0.0013 0.16682,-0.01185 0.24029,-0.01585 0.28891,-0.01572 0.59374,-0.02043 0.86869,-0.01347 0.18222,0.0046 0.336,0.01188 0.51314,0.02426 0.0511,0.0036 0.0625,0.0045 0.0618,0.0052 -1.9e-4,1.87e-4 -0.0122,-7.2e-5 -0.0267,-5.3e-4 -0.13352,-0.0047 -0.31934,-0.0083 -0.52813,-0.0104 -0.135,-0.0013 -0.56872,-5.29e-4 -0.6811,0.0011 -0.16414,0.0024 -0.32433,0.0061 -0.41444,0.0094 -0.0268,0.0011 -0.0377,0.0011 -0.0336,2.64e-4 z"
       id="path103" />
    <path
       style="fill:#ff00ff;fill-opacity:0.997741;stroke:#000000;stroke-width:0;stroke-dasharray:none;stroke-opacity:1;paint-order:normal"
       d="m 133.02944,26.412376 c -0.46744,-0.809654 -0.8484,-1.473597 -0.84657,-1.475428 0.002,-0.0019 0.76774,-0.0024 1.70201,-0.0013 l 1.69868,0.0021 -0.84869,1.469919 c -0.46678,0.808455 -0.85023,1.471459 -0.85211,1.47334 -0.002,0.0019 -0.38588,-0.659022 -0.85332,-1.468676 z"
       id="path104" />
    <path
       style="fill:#800080;fill-opacity:0.997741;stroke:#000000;stroke-width:0.370999;stroke-dasharray:none;stroke-opacity:1;paint-order:normal"
       d="m 133.07553,26.415717 c -0.44366,-0.768916 -0.79372,-1.410964 -0.77791,-1.426773 0.0158,-0.01582 0.74417,-0.02077 1.61858,-0.01101 l 1.58984,0.01773 -0.81192,1.409039 -0.81194,1.409038 z"
       id="path105" />
    <path
       style="fill:#800080;fill-opacity:0.997741;stroke:#000000;stroke-width:0.671;stroke-dasharray:none;stroke-opacity:1;paint-order:normal"
       d="m 65.696604,61.729164 c -0.399371,-0.01073 -0.799489,0.0065 -1.196464,0.05145 -0.364498,0.0413 -0.738963,0.110938 -1.041902,0.3178 -0.06848,0.04676 -0.132857,0.100456 -0.185196,0.164767 -0.05234,0.06431 -0.0924,0.139713 -0.108807,0.22099 -0.02761,0.136744 0.01345,0.279463 0.07957,0.402299 0.06612,0.122837 0.156362,0.23067 0.236949,0.344543 0.305828,0.432151 0.478328,0.959272 0.849568,1.336719 0.328502,0.333994 0.781272,0.516505 1.234673,0.634371 0.145603,0.03785 0.293725,0.07012 0.444088,0.07499 0.150363,0.0049 0.304036,-0.01882 0.437731,-0.0878 0.160737,-0.08293 0.285848,-0.230312 0.347308,-0.40042 0.05176,-0.143265 0.05948,-0.299583 0.04261,-0.450976 -0.01686,-0.151393 -0.05749,-0.29904 -0.100365,-0.44521 -0.10905,-0.371776 -0.233909,-0.739731 -0.395475,-1.091874 -0.174172,-0.379619 -0.390707,-0.739782 -0.644294,-1.071654 z"
       id="path106"
       inkscape:path-effect="#path-effect106;#path-effect107"
       inkscape:original-d="m 65.696604,61.729164 c -0.32426,-0.05587 -0.664564,-0.03899 -0.989427,0.01638 -0.317043,0.05404 -1.542942,0.230119 -1.542942,0.738629 0,0.35732 0.327866,0.736008 0.495252,1.025102 0.287219,0.496059 0.511898,1.017399 1.003451,1.349198 0.356307,0.240506 0.731988,0.33306 1.153433,0.37751 1.127376,0.118901 1.10585,-0.563028 0.885843,-1.49365 -0.07812,-0.330459 -0.226909,-0.649047 -0.367932,-0.955908 -0.17835,-0.388088 -0.380212,-0.711192 -0.637678,-1.057267 z"
       transform="translate(83.06737,-2.0579758)" />
    <path
       style="fill:#808080;fill-opacity:0.997741;stroke:none;stroke-width:0.370999;stroke-dasharray:none;stroke-opacity:1;paint-order:normal"
       d="m 64.214252,62.394231 0.370033,-0.210288"
       id="path109"
       inkscape:path-effect="#path-effect110;#path-effect111"
       inkscape:original-d="m 64.214252,62.394231 c 0.115478,-0.08839 0.239705,-0.150942 0.370033,-0.210288"
       transform="translate(83.06737,-2.0579758)" />
    <path
       style="fill:#666666;fill-opacity:1;stroke:none;stroke-width:0.370999;stroke-dasharray:none;stroke-opacity:1;paint-order:normal"
       d="m 65.89556,61.401184 c -0.06563,0.124786 -0.137039,0.246536 -0.21391,0.364731 -0.03765,0.05788 -0.0766,0.114913 -0.11418,0.172841 -0.02869,0.04422 -0.05678,0.08924 -0.09257,0.12794 -0.04702,0.05085 -0.105823,0.08919 -0.165499,0.124336 -0.248319,0.146228 -0.522253,0.245917 -0.802716,0.312139 -0.160256,0.03784 -0.322837,0.06495 -0.485554,0.09018 -0.123119,0.01909 -0.251392,0.0368 -0.370346,-2.54e-4 -0.07053,-0.02197 -0.13407,-0.06228 -0.191971,-0.108149 -0.0579,-0.04587 -0.110906,-0.09755 -0.166755,-0.145896 -0.06981,-0.06043 -0.144122,-0.115703 -0.21123,-0.179125 -0.06711,-0.06342 -0.127598,-0.136254 -0.162357,-0.221797 -0.04305,-0.105964 -0.04373,-0.226459 -0.01355,-0.336783 0.03012,-0.11011 0.089,-0.209696 0.14158,-0.311019 0.0036,-0.007 0.0073,-0.01407 0.01086,-0.02113"
       id="path117"
       inkscape:path-effect="#path-effect117;#path-effect118"
       inkscape:original-d="m 65.89556,61.401184 c -0.07577,0.09994 -0.133334,0.213159 -0.193315,0.32348 -0.02897,0.05329 -0.04986,0.115294 -0.08717,0.163618 -0.02513,0.03256 -0.05916,0.0575 -0.08383,0.09034 -0.01389,0.0185 -0.02029,0.04232 -0.03433,0.06094 -0.0263,0.03487 -0.06644,0.07689 -0.100615,0.103105 -0.03247,0.0249 -0.07154,0.03942 -0.107289,0.0589 -0.19046,0.103828 -0.401878,0.173596 -0.607028,0.242906 -0.143156,0.04837 -0.287398,0.100285 -0.436981,0.125799 -0.106733,0.0182 -0.217789,0.02363 -0.325784,0.02752 -0.08877,0.0032 -0.189219,0.01267 -0.276664,-0.0064 -0.174419,-0.03809 -0.285149,-0.192629 -0.407133,-0.309157 -0.152646,-0.145817 -0.341328,-0.266594 -0.359066,-0.500457 -0.01066,-0.140499 0.06868,-0.275177 0.12913,-0.396491 0.01897,-0.03804 0.03115,-0.07926 0.05188,-0.116089"
       transform="translate(83.06737,-2.0579758)" />
    <path
       style="fill:none;fill-opacity:1;stroke:none;stroke-width:0.0927497;stroke-dasharray:none;stroke-opacity:1;paint-order:normal"
       d="m 148.68404,62.770041 c -0.70995,-0.196268 -1.08937,-0.493006 -1.42122,-1.111504 -0.10294,-0.191841 -0.28664,-0.500716 -0.40823,-0.686382 -0.25557,-0.390253 -0.26943,-0.451175 -0.0921,-0.404799 0.20338,0.05319 1.03658,-0.129427 1.44625,-0.316982 0.35567,-0.162827 0.37729,-0.165251 0.46267,-0.05182 0.31192,0.414398 0.8725,1.852988 0.8725,2.239071 0,0.205197 -0.21931,0.428334 -0.41341,0.420619 -0.0819,-0.0033 -0.28277,-0.04295 -0.44648,-0.0882 z"
       id="path118" />
    <path
       style="fill:#ff00ff;fill-opacity:1;stroke:none;stroke-width:0.0327919;stroke-dasharray:none;stroke-opacity:1;paint-order:normal"
       d="m 116.54388,64.427711 c -0.10069,-0.0497 -0.29827,-0.21659 -0.38649,-0.326459 -0.0889,-0.11077 -0.16668,-0.278233 -0.2117,-0.456028 -0.0552,-0.218027 -0.0383,-0.809707 0.035,-1.227769 0.0884,-0.503653 0.27583,-1.296033 0.4503,-1.903476 0.083,-0.288923 0.16131,-0.573964 0.17406,-0.633423 l 0.0232,-0.108109 0.34401,0.113935 c 0.86393,0.286133 1.80996,0.479298 2.73568,0.558583 0.28239,0.02418 0.33163,0.0341 0.3231,0.06507 -0.17711,0.642905 -0.36168,1.11855 -0.60404,1.556631 -0.31408,0.567721 -0.67194,1.039519 -1.10865,1.46163 -0.34196,0.330525 -0.61255,0.524729 -0.9787,0.702413 -0.46456,0.225435 -0.6468,0.270549 -0.7958,0.197003 z"
       id="path120" />
    <path
       style="fill:#000000;fill-opacity:1;stroke:#000000;stroke-width:0.201;stroke-dasharray:none;stroke-opacity:1;paint-order:normal"
       d="m 121.57303,60.735969 c -0.0111,-0.0013 -0.027,-0.0038 -0.0276,-0.0044 -5.3e-4,-5.29e-4 0.0405,-0.207621 0.0442,-0.223258 5.3e-4,-0.0024 5.3e-4,-0.0024 0.002,-5.29e-4 0.001,0.0011 0.006,0.0057 0.011,0.01021 0.005,0.0046 0.0116,0.01058 0.0145,0.01344 l 0.005,0.0052 -8e-4,0.02066 c -5.3e-4,0.01138 -0.001,0.04044 -0.002,0.06459 -0.001,0.03994 -0.002,0.06143 -0.004,0.101028 l -7.9e-4,0.01368 -0.0197,-1.53e-4 c -0.0109,-8.5e-5 -0.0211,-2.65e-4 -0.0229,-5.29e-4 z"
       id="path122" />
    <path
       style="fill:#000000;fill-opacity:1;stroke:#000000;stroke-width:0.000785156;stroke-dasharray:none;stroke-opacity:1;paint-order:normal"
       d="m 121.61799,60.409495 c -0.004,-0.0013 -0.008,-0.0028 -0.008,-0.0032 2.6e-4,-0.0026 0.0257,-0.128328 0.026,-0.128133 1.3e-4,1.3e-4 -8e-4,0.01765 -0.002,0.03895 -10e-4,0.0213 -0.003,0.04801 -0.004,0.05938 -0.002,0.03022 -0.002,0.03567 -0.004,0.03553 -8e-4,-6.9e-5 -0.005,-0.0013 -0.009,-0.0024 z"
       id="path123" />
    <path
       style="fill:#deaa87;stroke-width:0.000392578"
       d="m 131.48612,81.532695 c -0.1819,-0.02627 -0.86651,-0.11294 -1.52136,-0.192587 -6.38372,-0.776436 -12.48515,-3.283056 -17.92552,-7.364254 -1.71826,-1.288989 -5.0465,-4.556874 -6.37547,-6.259862 -2.3806,-3.050571 -4.57476,-6.948585 -5.783853,-10.275218 -1.066349,-2.933901 -1.860703,-6.535213 -2.122974,-9.624792 -1.24869,-14.709749 6.617767,-28.941192 19.747097,-35.725065 4.24778,-2.1948118 9.16241,-3.6496898 13.65631,-4.0426758 2.14769,-0.1878124 6.8234,-0.07183 8.52785,0.211538 4.37863,0.727953 7.79791,1.8295648 11.50151,3.7055118 3.72183,1.885178 6.58925,4.00517 9.60916,7.104418 5.6302,5.778109 8.85614,12.31533 10.19668,20.663106 0.27533,1.71454 0.38153,6.416697 0.18866,8.353338 -0.70183,7.047238 -3.12894,13.27476 -7.39659,18.978266 -1.51816,2.028963 -5.06131,5.575041 -7.03379,7.039628 -5.88621,4.370557 -12.73373,6.961151 -19.51302,7.382283 -1.91707,0.119086 -5.07511,0.144534 -5.75469,0.04636 z M 117.7641,70.850583 c 2.42708,-0.818589 3.94837,-1.822813 6.02054,-3.974203 1.43511,-1.489986 2.56243,-3.200096 3.33861,-5.064572 0.54975,-1.320544 0.50984,-1.497399 -0.39963,-1.770888 -0.40018,-0.120341 -0.79122,-0.194403 -0.86897,-0.164582 -0.0778,0.02982 -0.33294,0.522793 -0.5671,1.095494 -1.80242,4.408358 -6.02917,8.004016 -9.75904,8.30194 -1.43649,0.114739 -1.83278,-0.0058 -2.61878,-0.796589 -0.84756,-0.852718 -1.00278,-1.347589 -1.00278,-3.197072 0,-1.719167 0.27624,-3.675612 0.80829,-5.724776 0.21778,-0.838756 0.36738,-1.599504 0.33244,-1.690553 -0.0851,-0.221845 -1.30756,-0.619154 -1.58153,-0.514021 -0.22755,0.08732 -0.58464,1.142214 -0.93711,2.768346 -0.77284,3.565585 -0.84557,6.47189 -0.20483,8.184435 0.47213,1.26188 1.65746,2.345248 3.07579,2.811211 0.89792,0.294989 3.10175,0.161589 4.3641,-0.26417 z m 34.30215,0.303424 c 1.90064,-0.348049 3.42975,-1.862963 3.88869,-3.852598 0.18992,-0.823309 0.16198,-3.139067 -0.0564,-4.674759 -0.37055,-2.605961 -1.02867,-5.189286 -1.35379,-5.314045 -0.11045,-0.04238 -0.5218,0.0241 -0.91411,0.14778 -0.84744,0.267132 -0.84843,0.272222 -0.3858,1.979399 0.73288,2.704488 1.09871,6.35396 0.74885,7.47042 -0.2704,0.862901 -0.80629,1.595064 -1.43873,1.965695 -0.52805,0.309465 -0.75866,0.361194 -1.55603,0.349057 -2.40203,-0.03656 -4.94552,-1.303483 -7.16729,-3.570041 -1.41118,-1.439625 -2.52069,-3.205226 -3.46678,-5.51679 -0.14238,-0.347885 -0.19335,-0.370594 -0.6426,-0.286314 -0.26838,0.05035 -0.66068,0.180859 -0.87179,0.290029 -0.33878,0.175188 -0.37523,0.251539 -0.31049,0.650435 0.10383,0.63985 1.14795,2.791775 1.90049,3.916913 0.74991,1.121204 2.57271,3.076578 3.60894,3.871426 2.59898,1.993572 5.71717,2.994506 8.01682,2.573393 z m -33.72382,-5.288055 c 1.69807,-0.818841 3.24164,-3.039682 3.49342,-5.026229 0.0687,-0.541861 0.15098,-1.178676 0.1829,-1.415148 0.055,-0.40735 0.0359,-0.429921 -0.36361,-0.429453 -0.58627,7.94e-4 -1.26174,0.449019 -1.48633,0.986531 -0.21706,0.519507 -0.25176,0.520253 -2.32844,0.05003 -0.82554,-0.186926 -1.16065,-0.322049 -1.20331,-0.485191 -0.0363,-0.138977 -0.35186,-0.318391 -0.81874,-0.465561 -0.41779,-0.131696 -0.77609,-0.219874 -0.79622,-0.19595 -0.36636,0.435377 -0.99848,3.064671 -0.99848,4.153165 0,1.162528 0.20777,1.812829 0.78459,2.455775 0.88781,0.98956 2.00888,1.107569 3.53422,0.372028 z m 32.62809,-1.083366 c 0.9764,-0.547206 1.23486,-1.55027 0.81598,-3.166771 -0.25927,-1.000567 -0.76562,-2.150264 -1.1949,-2.713075 l -0.33271,-0.436205 -0.51387,0.262154 c -0.28263,0.144188 -0.55119,0.322538 -0.5968,0.396338 -0.0456,0.0738 -0.42172,0.143537 -0.83579,0.154967 l -0.75287,0.0208 0.64156,0.07844 0.64157,0.07843 -0.28378,0.359246 c -0.47229,0.597874 -1.77003,0.832395 -2.16867,0.391909 -0.18997,-0.209923 -0.3317,-0.227359 -1.09808,-0.135096 -0.48397,0.05826 -0.91061,0.136596 -0.94808,0.174072 -0.1229,0.122894 0.25911,1.576946 0.59179,2.252578 0.59039,1.199012 1.88648,2.269037 3.14497,2.596404 0.71693,0.186496 2.30425,0.01392 2.88968,-0.314175 z m 12.06304,-20.373115 c -0.0316,-0.600273 -0.0853,-1.895078 -0.11951,-2.877343 -0.12169,-3.498702 -1.19967,-5.90459 -3.74237,-8.352378 -1.66531,-1.603155 -3.21899,-2.474748 -5.79129,-3.248855 -0.65437,-0.196927 -1.26996,-0.23867 -3.50573,-0.237726 l -2.71198,0.0011 -1.49454,0.513093 c -1.90599,0.654349 -3.48983,1.595543 -4.85913,2.887535 -2.4132,2.277057 -3.76664,5.173718 -3.76664,8.061558 v 1.169464 h -2.64583 -2.64584 l -0.001,-0.628386 c -0.002,-1.470398 -0.4818,-3.371352 -1.22623,-4.861718 -1.58155,-3.166277 -4.27631,-5.360049 -7.9956,-6.509129 -1.09984,-0.339794 -1.30374,-0.359018 -3.80789,-0.359018 -2.50366,0 -2.70823,0.01929 -3.80691,0.358732 -4.5166,1.395482 -7.74308,4.652788 -8.83405,8.918443 -0.17977,0.70289 -0.27462,1.711217 -0.3401,3.615407 l -0.0907,2.640669 h 28.7214 28.72142 z m -27.9923,-12.768603 c 2.90758,-5.020366 5.3084,-9.274434 5.3084,-9.406078 0,-0.105942 -0.73279,-0.149537 -2.51354,-0.149537 h -2.51354 v -1.514141 -1.51414 l 0.93827,-0.493048 c 1.17732,-0.618665 2.35251,-1.778475 2.88812,-2.850317 0.64698,-1.294728 0.61622,-1.362384 -0.76699,-1.687124 -1.60788,-0.377485 -1.68359,-0.368748 -1.9888,0.229513 -0.30054,0.589097 -1.15273,1.396531 -1.79945,1.704927 -0.37821,0.180358 -0.53825,0.190174 -0.97366,0.05972 -0.77512,-0.23223 -1.7403,-0.93182 -2.26452,-1.641381 -0.53375,-0.722457 -0.55429,-0.725586 -2.11839,-0.322711 -1.35105,0.347997 -1.41739,0.48861 -0.7878,1.669829 0.5339,1.001704 1.81567,2.237375 2.87614,2.7727 l 0.82208,0.414981 v 1.585595 1.585596 h -2.37344 c -1.3054,0 -2.39814,0.04465 -2.42832,0.09922 -0.0302,0.05457 0.56866,1.170781 1.33075,2.480468 4.49518,7.725172 5.07204,8.668615 5.29675,8.662646 0.0509,-0.0013 0.53144,-0.760372 1.06794,-1.686718 z m -18.57171,-3.668636 c 0.34451,-0.665514 0.68209,-1.027266 1.41592,-1.517301 1.32744,-0.886425 3.31891,-1.404223 6.90114,-1.794346 l 0.77496,-0.0844 -0.0513,-0.907636 c -0.0282,-0.4992 -0.0951,-0.951394 -0.14853,-1.004876 -0.14724,-0.147244 -3.97435,0.305139 -5.25272,0.620899 -2.30993,0.570554 -4.64472,2.030467 -5.29932,3.313593 -0.40612,0.79606 -0.34484,1.078868 0.30531,1.40898 0.67041,0.3404 1.16687,0.327605 1.35452,-0.03491 z m 36.68135,0.06881 c 0.31034,-0.140862 0.60071,-0.351115 0.64526,-0.467228 0.23118,-0.602424 -1.11757,-2.262105 -2.51272,-3.091997 -0.90409,-0.537794 -2.57231,-1.115543 -4.00133,-1.38577 -1.48914,-0.281599 -3.7456,-0.51328 -4.10951,-0.421943 -0.28705,0.07204 -0.3094,0.143788 -0.3094,0.993068 v 0.915416 l 0.56224,0.06899 c 0.30923,0.03794 1.15272,0.136454 1.87442,0.218919 3.25077,0.371446 5.9306,1.606476 6.51503,3.002526 0.21325,0.50941 0.50347,0.54591 1.33601,0.168024 z m -27.70254,-6.055008 c 0.036,-0.127331 0.10512,-0.543787 0.15354,-0.925461 0.0665,-0.524041 0.0445,-0.708317 -0.0897,-0.75263 -0.0977,-0.03227 -2.20176,-0.271905 -4.67561,-0.532513 -2.47385,-0.260609 -4.7749,-0.509256 -5.11344,-0.552551 -0.72292,-0.09245 -0.82204,0.01997 -0.96747,1.097192 -0.08,0.592781 -0.0603,0.691852 0.15014,0.755733 0.13323,0.04044 2.14723,0.282006 4.47556,0.536822 2.32833,0.254817 4.41193,0.486246 4.63021,0.514288 1.00246,0.128787 1.37065,0.09268 1.43672,-0.14088 z m 22.18172,-0.231012 c 6.47653,-0.697432 5.87539,-0.587588 5.92334,-1.082358 0.0541,-0.55813 -0.20669,-1.497828 -0.41566,-1.497828 -0.32037,0 -9.68309,1.060377 -10.06013,1.139361 -0.37739,0.07906 -0.38024,0.08685 -0.31101,0.850294 0.0761,0.83924 0.15862,1.053054 0.40642,1.053054 0.0891,0 2.09473,-0.208135 4.45704,-0.462523 z m -1.87734,-3.047948 c 2.27934,-0.427111 3.91675,-1.170573 5.11749,-2.32359 0.85906,-0.824903 1.45315,-1.814759 1.32725,-2.211421 -0.0952,-0.300061 -0.87989,-0.685768 -1.39508,-0.685768 -0.32714,0 -0.42422,0.08597 -0.6349,0.562239 -0.70735,1.59906 -2.988,2.555857 -7.35299,3.084785 l -0.64399,0.07804 0.0803,0.485646 c 0.0442,0.267106 0.081,0.69645 0.0818,0.954099 l 0.002,0.468452 1.14401,-0.100305 c 0.6292,-0.05517 1.65281,-0.195646 2.27469,-0.312174 z M 126.06216,18.122497 V 17.20245 l -0.42995,-0.06394 c -0.23647,-0.03516 -0.95288,-0.12968 -1.59203,-0.210033 -1.31633,-0.16549 -3.15669,-0.665841 -3.96408,-1.07774 -0.78778,-0.401896 -1.90509,-1.504292 -1.99862,-1.97195 -0.0661,-0.330634 -0.14115,-0.392496 -0.476,-0.392496 -0.21863,0 -0.63684,0.09576 -0.92935,0.212801 -0.42158,0.168685 -0.53184,0.281101 -0.53184,0.542247 0,0.990641 1.47604,2.631104 3.04742,3.386871 1.63945,0.78851 4.10247,1.364253 5.98148,1.398199 l 0.89297,0.01613 z"
       id="path1" />
    <path
       style="fill:#ff00ff;fill-opacity:1;stroke-width:0.000196289"
       d="m 148.68404,62.770041 c -0.70995,-0.196268 -1.08937,-0.493006 -1.42122,-1.111501 -0.10294,-0.191844 -0.28664,-0.500716 -0.40823,-0.686385 -0.25557,-0.390253 -0.26943,-0.451175 -0.0921,-0.404797 0.20338,0.05319 1.03658,-0.129429 1.44625,-0.316981 0.35567,-0.16283 0.37729,-0.165254 0.46267,-0.05182 0.31192,0.414398 0.8725,1.852988 0.8725,2.239073 0,0.205195 -0.21931,0.428332 -0.41341,0.420619 -0.0819,-0.0033 -0.28277,-0.04294 -0.44648,-0.0882 z"
       id="path2" />
    <path
       style="fill:#ff00ff;fill-opacity:1;stroke-width:0.000196289"
       d="m 133.65437,26.968461 c -0.63028,-1.078632 -0.9907,-1.750258 -0.95721,-1.783741 0.0205,-0.02051 0.57184,-0.01566 1.22518,0.01074 l 1.18789,0.04804 -0.5975,1.033635 c -0.32862,0.568496 -0.60553,1.043302 -0.61535,1.055121 -0.01,0.01183 -0.11918,-0.151892 -0.24301,-0.363802 z"
       id="path3" />
  </g>
  <g
     inkscape:groupmode="layer"
     id="layer2"
     inkscape:label="Layer 2"
     transform="translate(0.15888679,0.0359925)" />
</svg>
