<?xml version="1.0" encoding="UTF-8" standalone="no"?>
<!-- Created with Inkscape (http://www.inkscape.org/) -->

<svg
   width="79.475937mm"
   height="79.475937mm"
   viewBox="0 0 79.475937 79.475937"
   version="1.1"
   id="svg1"
   inkscape:version="1.3.2 (091e20e, 2023-11-25, custom)"
   sodipodi:docname="CatPlayer.svg"
   inkscape:export-filename="DogEnemy.png"
   inkscape:export-xdpi="96"
   inkscape:export-ydpi="96"
   xmlns:inkscape="http://www.inkscape.org/namespaces/inkscape"
   xmlns:sodipodi="http://sodipodi.sourceforge.net/DTD/sodipodi-0.dtd"
   xmlns="http://www.w3.org/2000/svg"
   xmlns:svg="http://www.w3.org/2000/svg">
  <sodipodi:namedview
     id="namedview1"
     pagecolor="#ffffff"
     bordercolor="#000000"
     borderopacity="0.25"
     inkscape:showpageshadow="2"
     inkscape:pageopacity="0.0"
     inkscape:pagecheckerboard="0"
     inkscape:deskcolor="#d1d1d1"
     inkscape:document-units="mm"
     inkscape:zoom="2"
     inkscape:cx="196.25"
     inkscape:cy="159.25"
     inkscape:window-width="1920"
     inkscape:window-height="991"
     inkscape:window-x="-9"
     inkscape:window-y="-9"
     inkscape:window-maximized="1"
     inkscape:current-layer="layer1" />
  <defs
     id="defs1">
    <inkscape:path-effect
       effect="spiro"
       id="path-effect34"
       is_visible="true"
       lpeversion="1" />
    <inkscape:path-effect
       effect="simplify"
       id="path-effect32"
       is_visible="true"
       lpeversion="1.3"
       threshold="32.4675"
       steps="1"
       smooth_angles="360"
       helper_size="0"
       simplify_individual_paths="false"
       simplify_just_coalesce="false" />
    <inkscape:path-effect
       effect="spiro"
       id="path-effect30"
       is_visible="true"
       lpeversion="1" />
    <inkscape:path-effect
       effect="simplify"
       id="path-effect28"
       is_visible="true"
       lpeversion="1.3"
       threshold="32.4675"
       steps="1"
       smooth_angles="360"
       helper_size="0"
       simplify_individual_paths="false"
       simplify_just_coalesce="false" />
    <inkscape:path-effect
       effect="spiro"
       id="path-effect22"
       is_visible="true"
       lpeversion="1" />
    <inkscape:path-effect
       effect="simplify"
       id="path-effect21"
       is_visible="true"
       lpeversion="1.3"
       threshold="32.4675"
       steps="1"
       smooth_angles="360"
       helper_size="0"
       simplify_individual_paths="false"
       simplify_just_coalesce="false" />
    <inkscape:path-effect
       effect="spiro"
       id="path-effect20"
       is_visible="true"
       lpeversion="1" />
    <inkscape:path-effect
       effect="simplify"
       id="path-effect19"
       is_visible="true"
       lpeversion="1.3"
       threshold="32.4675"
       steps="1"
       smooth_angles="360"
       helper_size="0"
       simplify_individual_paths="false"
       simplify_just_coalesce="false" />
    <inkscape:path-effect
       effect="spiro"
       id="path-effect18"
       is_visible="true"
       lpeversion="1" />
    <inkscape:path-effect
       effect="simplify"
       id="path-effect16"
       is_visible="true"
       lpeversion="1.3"
       threshold="32.4675"
       steps="1"
       smooth_angles="360"
       helper_size="0"
       simplify_individual_paths="false"
       simplify_just_coalesce="false" />
    <inkscape:path-effect
       effect="spiro"
       id="path-effect14"
       is_visible="true"
       lpeversion="1" />
    <inkscape:path-effect
       effect="simplify"
       id="path-effect13"
       is_visible="true"
       lpeversion="1.3"
       threshold="32.4675"
       steps="1"
       smooth_angles="360"
       helper_size="0"
       simplify_individual_paths="false"
       simplify_just_coalesce="false" />
    <linearGradient
       id="swatch9"
       inkscape:swatch="solid">
      <stop
         style="stop-color:#000000;stop-opacity:1;"
         offset="0"
         id="stop9" />
    </linearGradient>
    <linearGradient
       id="swatch43"
       inkscape:swatch="solid">
      <stop
         style="stop-color:#000000;stop-opacity:1;"
         offset="0"
         id="stop43" />
    </linearGradient>
  </defs>
  <g
     inkscape:groupmode="layer"
     id="layer2"
     inkscape:label="Layer 2"
     transform="translate(0.15888679,0.0359925)">
    <circle
       style="fill:#666666;fill-opacity:1;stroke:#000000;stroke-width:2.64583;stroke-dasharray:none;stroke-opacity:1;paint-order:normal"
       id="circle1"
       cx="39.579082"
       cy="39.701977"
       r="38.415054" />
    <path
       style="fill:#666666;stroke:#000000;stroke-width:1.47638e-05"
       d="m 21.537109,93.000596 c 0,-7.75e-4 0.0095,-0.02232 0.02101,-0.04788 0.01156,-0.02556 0.06234,-0.138754 0.112858,-0.251547 0.654914,-1.462325 1.370348,-2.985748 2.095875,-4.462891 l 0.105525,-0.214844 0.296913,-10e-4 0.296913,-0.001 -0.132942,0.268579 c -0.12242,0.247324 -0.343584,0.698035 -0.425061,0.866235 -0.373399,0.770838 -0.616648,1.280582 -0.901271,1.888672 -0.301848,0.644889 -0.564539,1.216542 -0.876876,1.908203 L 22.108887,93 21.822998,93.001 c -0.157239,5.51e-4 -0.285889,3.68e-4 -0.285889,-4.06e-4 z"
       id="path5"
       transform="scale(0.26458333)" />
    <path
       style="fill:#666666;stroke:#000000;stroke-width:1.47638e-05"
       d="m 20.335035,95.77832 c 0.01618,-0.04187 0.362598,-0.856512 0.48681,-1.144786 0.226502,-0.525675 0.542359,-1.247374 0.692703,-1.582753 l 0.02101,-0.04687 0.286358,-0.001 c 0.228691,-8e-4 0.285936,-1.3e-5 0.28426,0.0039 -0.0012,0.0027 -0.02786,0.06204 -0.05934,0.131862 -0.274795,0.609459 -0.664844,1.499278 -0.990988,2.260742 l -0.164382,0.383789 h -0.27916 c -0.221731,0 -0.278772,-0.001 -0.277274,-0.0049 z"
       id="path6"
       transform="scale(0.26458333)" />
    <path
       style="fill:#666666;stroke:#000000;stroke-width:2.95276e-05"
       d="m 243.60156,46.803226 c -0.0831,-0.07832 -0.73879,-0.672134 -1.04327,-0.944762 -2.66688,-2.38784 -5.45812,-4.700689 -8.27118,-6.853576 l -0.19727,-0.150971 v -0.328306 c 0,-0.26147 0.002,-0.326766 0.01,-0.320741 0.005,0.0042 0.11348,0.08614 0.24023,0.18217 3.31606,2.512294 6.71355,5.343424 9.79219,8.159835 0.1503,0.1375 0.28755,0.263039 0.305,0.278977 l 0.0317,0.02898 -0.40625,-1.7e-5 -0.40625,-1.7e-5 z"
       id="path7"
       transform="scale(0.26458333)" />
    <ellipse
       style="fill:#e4e4e4;fill-opacity:1;stroke:#000000;stroke-width:2.001;stroke-dasharray:none;stroke-opacity:1"
       id="path9"
       cx="29.700329"
       cy="46.631851"
       rx="6.1271539"
       ry="11.552726" />
    <ellipse
       style="fill:#e4e4e4;fill-opacity:1;stroke:#000000;stroke-width:2.001;stroke-dasharray:none;stroke-opacity:1"
       id="ellipse9"
       cx="47.941475"
       cy="46.257675"
       rx="6.1271539"
       ry="11.552726" />
    <ellipse
       style="fill:#e4e4e4;fill-opacity:1;stroke:#000000;stroke-width:2.46138;stroke-dasharray:none;stroke-opacity:1"
       id="path10"
       cx="41.220707"
       cy="25.634409"
       rx="8.8249416"
       ry="1.0442294"
       transform="matrix(0.96437767,0.26452924,-0.47129012,0.88197824,0,0)"
       inkscape:transform-center-x="-0.18985344"
       inkscape:transform-center-y="-0.068011233" />
    <ellipse
       style="fill:#e4e4e4;fill-opacity:1;stroke:#000000;stroke-width:2.46138;stroke-dasharray:none;stroke-opacity:1"
       id="ellipse10"
       cx="-27.095226"
       cy="46.230278"
       rx="8.8249416"
       ry="1.0442294"
       transform="matrix(-0.96437767,0.26452924,0.47129012,0.88197824,0,0)"
       inkscape:transform-center-x="0.18985324"
       inkscape:transform-center-y="-0.068010087" />
    <ellipse
       style="fill:#ff0000;fill-opacity:1;stroke:#000000;stroke-width:2.001;stroke-dasharray:none;stroke-opacity:1"
       id="path11"
       cx="29.700329"
       cy="50.747803"
       rx="2.3386083"
       ry="2.1515198" />
    <ellipse
       style="fill:#ff0000;fill-opacity:1;stroke:#000000;stroke-width:2.001;stroke-dasharray:none;stroke-opacity:1"
       id="ellipse11"
       cx="29.700329"
       cy="50.747803"
       rx="2.3386083"
       ry="2.1515198" />
    <ellipse
       style="fill:#ff0000;fill-opacity:1;stroke:#000000;stroke-width:2.001;stroke-dasharray:none;stroke-opacity:1"
       id="ellipse12"
       cx="48.121944"
       cy="50.549366"
       rx="2.3386083"
       ry="2.1515198" />
    <ellipse
       style="fill:#800080;fill-opacity:1;stroke:#000000;stroke-width:2.001;stroke-dasharray:none;stroke-opacity:1"
       id="path12"
       cx="39.45599"
       cy="63.103123"
       rx="5.5562501"
       ry="2.811198" />
    <path
       style="fill:none;fill-opacity:1;stroke:#000000;stroke-width:2.001;stroke-dasharray:none;stroke-opacity:1"
       d="m 39.026041,66.145832 c 0.201002,0.36788 0.305916,0.787728 0.301591,1.206916 -0.0043,0.419189 -0.11788,0.836782 -0.32643,1.200437 -0.163171,0.284525 -0.381873,0.534051 -0.620615,0.758954 -0.15078,0.14204 -0.313459,0.277123 -0.504922,0.356192 -0.252538,0.104292 -0.534721,0.103336 -0.807745,0.09285 -0.521773,-0.02004 -1.044279,-0.06939 -1.552577,-0.188899 -0.177142,-0.04165 -0.352193,-0.09173 -0.526434,-0.144207 -0.532537,-0.160386 -1.064357,-0.344603 -1.618652,-0.390172 -0.334897,-0.02753 -0.671626,-0.0038 -1.006931,0.01825 -0.559036,0.03671 -1.119834,0.06874 -1.67166,0.165468 -0.26708,0.04682 -0.533152,0.109258 -0.782091,0.216742 -0.204561,0.08832 -0.396955,0.207355 -0.559049,0.360233 -0.122099,0.115156 -0.225867,0.248206 -0.324749,0.383821 -0.272852,0.374212 -0.512547,0.772591 -0.715362,1.188943"
       id="path13"
       inkscape:path-effect="#path-effect13;#path-effect14"
       inkscape:original-d="m 39.026041,66.145832 c -0.149294,0.823069 0.281559,2.000179 -0.165364,2.745053 -0.253897,0.423161 -0.463926,0.348019 -0.760677,0.595312 -0.12023,0.100192 -0.184828,0.195715 -0.363803,0.23151 -0.511577,0.102315 -1.676558,0.01236 -2.182812,-0.132291 -0.105415,-0.03012 -0.176988,-0.103092 -0.264583,-0.132292 -0.0963,-0.0321 -0.259887,-0.01228 -0.363802,-0.03307 -0.496216,-0.09924 -0.970034,-0.242509 -1.455209,-0.363802 -0.255661,-0.06391 -0.596151,0 -0.859896,0 -0.799028,0 -1.129231,-0.01 -1.918229,0.165365 -0.191368,0.04253 -0.450508,0.04335 -0.628385,0.132291 -0.234559,0.11728 -0.467979,0.294016 -0.694531,0.429948 -0.05512,0.03307 -0.05376,0.119909 -0.09922,0.165365 -0.418058,0.418057 -0.959115,0.800261 -0.959115,1.422135"
       transform="matrix(1.2000404,0,0,0.97701783,-7.9940403,1.5794161)" />
    <path
       style="fill:none;fill-opacity:1;stroke:#000000;stroke-width:2.001;stroke-dasharray:none;stroke-opacity:1"
       d="m 39.026041,66.145832 c 0.201002,0.36788 0.305916,0.787728 0.301591,1.206916 -0.0043,0.419189 -0.11788,0.836782 -0.32643,1.200437 -0.163171,0.284525 -0.381873,0.534051 -0.620615,0.758954 -0.15078,0.14204 -0.313459,0.277123 -0.504922,0.356192 -0.252538,0.104292 -0.534721,0.103336 -0.807745,0.09285 -0.521773,-0.02004 -1.044279,-0.06939 -1.552577,-0.188899 -0.177142,-0.04165 -0.352193,-0.09173 -0.526434,-0.144207 -0.532537,-0.160386 -1.064357,-0.344603 -1.618652,-0.390172 -0.334897,-0.02753 -0.671626,-0.0038 -1.006931,0.01825 -0.559036,0.03671 -1.119834,0.06874 -1.67166,0.165468 -0.26708,0.04682 -0.533152,0.109258 -0.782091,0.216742 -0.204561,0.08832 -0.396955,0.207355 -0.559049,0.360233 -0.122099,0.115156 -0.225867,0.248206 -0.324749,0.383821 -0.272852,0.374212 -0.512547,0.772591 -0.715362,1.188943"
       id="path14"
       inkscape:path-effect="#path-effect16;#path-effect18"
       inkscape:original-d="m 39.026041,66.145832 c -0.149294,0.823069 0.281559,2.000179 -0.165364,2.745053 -0.253897,0.423161 -0.463926,0.348019 -0.760677,0.595312 -0.12023,0.100192 -0.184828,0.195715 -0.363803,0.23151 -0.511577,0.102315 -1.676558,0.01236 -2.182812,-0.132291 -0.105415,-0.03012 -0.176988,-0.103092 -0.264583,-0.132292 -0.0963,-0.0321 -0.259887,-0.01228 -0.363802,-0.03307 -0.496216,-0.09924 -0.970034,-0.242509 -1.455209,-0.363802 -0.255661,-0.06391 -0.596151,0 -0.859896,0 -0.799028,0 -1.129231,-0.01 -1.918229,0.165365 -0.191368,0.04253 -0.450508,0.04335 -0.628385,0.132291 -0.234559,0.11728 -0.467979,0.294016 -0.694531,0.429948 -0.05512,0.03307 -0.05376,0.119909 -0.09922,0.165365 -0.418058,0.418057 -0.959115,0.800261 -0.959115,1.422135"
       transform="matrix(-1.2000404,0,0,0.97701783,86.438738,1.5794161)" />
    <g
       id="g26">
      <path
         style="fill:#000000;fill-opacity:1;stroke:#000000;stroke-width:2.001;stroke-dasharray:none;stroke-opacity:1"
         d="m 46.698958,22.787239 c 0.973058,-1.629852 2.068245,-3.186772 3.273346,-4.653398 0.654481,-0.796512 1.342532,-1.567647 2.098135,-2.268961 0.779287,-0.723297 1.639905,-1.377018 2.617918,-1.794074 0.38417,-0.163822 0.784236,-0.290086 1.1924,-0.378555 1.164156,-0.252332 2.383561,-0.193186 3.54348,0.07796 0.647176,0.151283 1.278744,0.367624 1.885978,0.637789 0.74702,0.332357 1.458545,0.747018 2.105048,1.24755 0.849061,0.657356 1.577664,1.455171 2.289997,2.258664 0.628971,0.709462 1.253289,1.432828 1.722895,2.256484 0.187504,0.328867 0.35103,0.677259 0.418949,1.049681 0.06792,0.372423 0.03331,0.773348 -0.155533,1.101447 -0.132478,0.230167 -0.33628,0.416071 -0.570421,0.541393 -0.234141,0.125322 -0.497719,0.19141 -0.762779,0.20786 -0.607192,0.03768 -1.197883,-0.178048 -1.770977,-0.382169 -0.435241,-0.15502 -0.874592,-0.306245 -1.279537,-0.5287 -0.289485,-0.159028 -0.558388,-0.35287 -0.843332,-0.519898 -1.146732,-0.672189 -2.515739,-0.884735 -3.844118,-0.837408 -0.483535,0.01723 -0.965773,0.06705 -1.44331,0.144913 -0.661475,0.107853 -1.315846,0.270115 -1.939239,0.516213 -0.372283,0.146966 -0.732775,0.323543 -1.078293,0.525559 -0.418203,0.244515 -0.814216,0.526034 -1.237112,0.76234 -0.415253,0.232035 -0.853829,0.419036 -1.280269,0.629808 -0.621424,0.307144 -1.216751,0.664607 -1.834704,0.978676 -0.391493,0.198973 -0.792505,0.380667 -1.207463,0.524426 -0.195393,0.06769 -0.395349,0.127243 -0.601237,0.146506 -0.205887,0.01926 -0.41946,-0.0037 -0.605292,-0.09437 -0.235264,-0.11483 -0.409717,-0.330618 -0.520292,-0.567912 -0.110574,-0.237294 -0.163307,-0.496938 -0.207312,-0.755005 -0.03931,-0.230561 -0.0724,-0.462184 -0.09922,-0.694531"
         id="path18"
         inkscape:path-effect="#path-effect19;#path-effect20"
         inkscape:original-d="m 46.698958,22.787239 c 0.756086,-1.286737 1.687906,-2.477968 2.579687,-3.704166 0.559512,-0.76933 1.134512,-1.584077 1.785938,-2.282032 0.395914,-0.424195 0.864846,-0.801043 1.289843,-1.190625 0.769869,-0.705712 1.365261,-1.241815 2.38125,-1.554427 0.192538,-0.05924 0.339426,-0.179763 0.529167,-0.23151 1.279422,-0.348933 2.80452,-0.251363 4.101042,-0.06615 0.161427,0.02306 0.272222,0.1203 0.429948,0.165365 0.394197,0.112628 0.761925,0.231926 1.157552,0.363802 0.626295,0.208765 1.307623,0.437922 1.852083,0.826823 0.439105,0.313646 0.790141,0.754801 1.190625,1.124479 0.666536,0.615264 1.304761,1.271687 1.951302,1.918229 0.446185,0.446184 0.911632,0.860419 1.223698,1.422135 0.331383,0.596492 0.778727,2.104615 0.496094,2.811198 -0.354254,0.885635 -1.516309,0.686894 -2.248959,0.595313 C 64.984902,22.931503 64.378276,22.568327 63.96302,22.39036 63.686181,22.271715 63.362217,22.215087 63.103124,22.059631 62.980447,21.986021 62.904745,21.864374 62.772395,21.795048 62.320593,21.558389 61.779768,21.319172 61.284114,21.166662 60.27576,20.8564 59.607621,20.80286 58.572135,20.80286 c -0.214913,0 -0.482553,-0.0424 -0.694532,0 -0.191161,0.03823 -0.370583,0.09745 -0.562239,0.132292 -0.177697,0.03231 -0.387668,-0.01057 -0.56224,0.03307 -0.452591,0.113148 -0.852876,0.284292 -1.289843,0.429948 -0.02474,0.0083 -0.411023,0.112194 -0.496094,0.165364 -0.430393,0.268996 -0.9246,0.453084 -1.35599,0.727605 -0.200131,0.127356 -0.474797,0.284767 -0.661458,0.429947 -0.04351,0.03384 -0.05248,0.103078 -0.09922,0.132292 -0.04767,0.02979 -0.113173,0.0122 -0.165364,0.03307 -0.448559,0.179423 -0.842063,0.432483 -1.289844,0.595313 -0.313296,0.113925 -0.607558,0.329603 -0.892969,0.496093 -0.45434,0.265031 -0.935604,0.501557 -1.389062,0.760677 -0.194011,0.110864 -1.535631,0.382599 -1.719792,0.198438 -0.226483,-0.226483 -0.682839,-1.009567 -0.727604,-1.322917 -0.03191,-0.223357 -0.02737,-0.478991 -0.09922,-0.694531" />
      <path
         style="fill:none;fill-opacity:1;stroke:#000000;stroke-width:2.001;stroke-dasharray:none;stroke-opacity:1"
         d="m 47.286661,21.772444 c -0.275184,0.129964 -0.513818,0.336298 -0.682159,0.58983 -0.0776,0.116869 -0.140483,0.24333 -0.223196,0.356637 -0.08524,0.116764 -0.191808,0.220139 -0.252255,0.35146 -0.05506,0.119623 -0.06767,0.25828 -0.03508,0.385871"
         id="path20"
         inkscape:path-effect="#path-effect21;#path-effect22"
         inkscape:original-d="m 47.286661,21.772444 c -0.302504,0.136329 -0.583938,0.438793 -0.771742,0.713275 -0.07659,0.111938 -0.126791,0.243198 -0.210474,0.350791 -0.04055,0.05214 -0.15096,0.176843 -0.175394,0.233861 -0.05036,0.117492 -0.03508,0.258691 -0.03508,0.385871"
         transform="matrix(0.81167792,0,0,0.83372848,8.9888358,3.4545297)" />
    </g>
    <g
       id="g27"
       transform="matrix(-1,0,0,1,79.991981,0.46302083)">
      <path
         style="fill:#000000;fill-opacity:1;stroke:#000000;stroke-width:2.001;stroke-dasharray:none;stroke-opacity:1"
         d="m 46.698958,22.787239 c 0.973058,-1.629852 2.068245,-3.186772 3.273346,-4.653398 0.654481,-0.796512 1.342532,-1.567647 2.098135,-2.268961 0.779287,-0.723297 1.639905,-1.377018 2.617918,-1.794074 0.38417,-0.163822 0.784236,-0.290086 1.1924,-0.378555 1.164156,-0.252332 2.383561,-0.193186 3.54348,0.07796 0.647176,0.151283 1.278744,0.367624 1.885978,0.637789 0.74702,0.332357 1.458545,0.747018 2.105048,1.24755 0.849061,0.657356 1.577664,1.455171 2.289997,2.258664 0.628971,0.709462 1.253289,1.432828 1.722895,2.256484 0.187504,0.328867 0.35103,0.677259 0.418949,1.049681 0.06792,0.372423 0.03331,0.773348 -0.155533,1.101447 -0.132478,0.230167 -0.33628,0.416071 -0.570421,0.541393 -0.234141,0.125322 -0.497719,0.19141 -0.762779,0.20786 -0.607192,0.03768 -1.197883,-0.178048 -1.770977,-0.382169 -0.435241,-0.15502 -0.874592,-0.306245 -1.279537,-0.5287 -0.289485,-0.159028 -0.558388,-0.35287 -0.843332,-0.519898 -1.146732,-0.672189 -2.515739,-0.884735 -3.844118,-0.837408 -0.483535,0.01723 -0.965773,0.06705 -1.44331,0.144913 -0.661475,0.107853 -1.315846,0.270115 -1.939239,0.516213 -0.372283,0.146966 -0.732775,0.323543 -1.078293,0.525559 -0.418203,0.244515 -0.814216,0.526034 -1.237112,0.76234 -0.415253,0.232035 -0.853829,0.419036 -1.280269,0.629808 -0.621424,0.307144 -1.216751,0.664607 -1.834704,0.978676 -0.391493,0.198973 -0.792505,0.380667 -1.207463,0.524426 -0.195393,0.06769 -0.395349,0.127243 -0.601237,0.146506 -0.205887,0.01926 -0.41946,-0.0037 -0.605292,-0.09437 -0.235264,-0.11483 -0.409717,-0.330618 -0.520292,-0.567912 -0.110574,-0.237294 -0.163307,-0.496938 -0.207312,-0.755005 -0.03931,-0.230561 -0.0724,-0.462184 -0.09922,-0.694531"
         id="path26"
         inkscape:path-effect="#path-effect28;#path-effect30"
         inkscape:original-d="m 46.698958,22.787239 c 0.756086,-1.286737 1.687906,-2.477968 2.579687,-3.704166 0.559512,-0.76933 1.134512,-1.584077 1.785938,-2.282032 0.395914,-0.424195 0.864846,-0.801043 1.289843,-1.190625 0.769869,-0.705712 1.365261,-1.241815 2.38125,-1.554427 0.192538,-0.05924 0.339426,-0.179763 0.529167,-0.23151 1.279422,-0.348933 2.80452,-0.251363 4.101042,-0.06615 0.161427,0.02306 0.272222,0.1203 0.429948,0.165365 0.394197,0.112628 0.761925,0.231926 1.157552,0.363802 0.626295,0.208765 1.307623,0.437922 1.852083,0.826823 0.439105,0.313646 0.790141,0.754801 1.190625,1.124479 0.666536,0.615264 1.304761,1.271687 1.951302,1.918229 0.446185,0.446184 0.911632,0.860419 1.223698,1.422135 0.331383,0.596492 0.778727,2.104615 0.496094,2.811198 -0.354254,0.885635 -1.516309,0.686894 -2.248959,0.595313 C 64.984902,22.931503 64.378276,22.568327 63.96302,22.39036 63.686181,22.271715 63.362217,22.215087 63.103124,22.059631 62.980447,21.986021 62.904745,21.864374 62.772395,21.795048 62.320593,21.558389 61.779768,21.319172 61.284114,21.166662 60.27576,20.8564 59.607621,20.80286 58.572135,20.80286 c -0.214913,0 -0.482553,-0.0424 -0.694532,0 -0.191161,0.03823 -0.370583,0.09745 -0.562239,0.132292 -0.177697,0.03231 -0.387668,-0.01057 -0.56224,0.03307 -0.452591,0.113148 -0.852876,0.284292 -1.289843,0.429948 -0.02474,0.0083 -0.411023,0.112194 -0.496094,0.165364 -0.430393,0.268996 -0.9246,0.453084 -1.35599,0.727605 -0.200131,0.127356 -0.474797,0.284767 -0.661458,0.429947 -0.04351,0.03384 -0.05248,0.103078 -0.09922,0.132292 -0.04767,0.02979 -0.113173,0.0122 -0.165364,0.03307 -0.448559,0.179423 -0.842063,0.432483 -1.289844,0.595313 -0.313296,0.113925 -0.607558,0.329603 -0.892969,0.496093 -0.45434,0.265031 -0.935604,0.501557 -1.389062,0.760677 -0.194011,0.110864 -1.535631,0.382599 -1.719792,0.198438 -0.226483,-0.226483 -0.682839,-1.009567 -0.727604,-1.322917 -0.03191,-0.223357 -0.02737,-0.478991 -0.09922,-0.694531" />
      <path
         style="fill:none;fill-opacity:1;stroke:#000000;stroke-width:2.001;stroke-dasharray:none;stroke-opacity:1"
         d="m 47.286661,21.772444 c -0.275184,0.129964 -0.513818,0.336298 -0.682159,0.58983 -0.0776,0.116869 -0.140483,0.24333 -0.223196,0.356637 -0.08524,0.116764 -0.191808,0.220139 -0.252255,0.35146 -0.05506,0.119623 -0.06767,0.25828 -0.03508,0.385871"
         id="path27"
         inkscape:path-effect="#path-effect32;#path-effect34"
         inkscape:original-d="m 47.286661,21.772444 c -0.302504,0.136329 -0.583938,0.438793 -0.771742,0.713275 -0.07659,0.111938 -0.126791,0.243198 -0.210474,0.350791 -0.04055,0.05214 -0.15096,0.176843 -0.175394,0.233861 -0.05036,0.117492 -0.03508,0.258691 -0.03508,0.385871"
         transform="matrix(0.81167792,0,0,0.83372848,8.9888358,3.4545297)" />
    </g>
  </g>
</svg>
